<svg width="64" height="65" viewBox="0 0 64 65" fill="none" xmlns="http://www.w3.org/2000/svg">
<g clip-path="url(#clip0_5302_1470)">
<path fill-rule="evenodd" clip-rule="evenodd" d="M14.0427 19.5499C14.3822 19.2678 14.6874 19.1706 14.6874 19.1706C14.6518 19.8214 14.7337 20.3746 14.8817 20.841C14.9849 21.1765 15.134 21.4964 15.3244 21.7912C15.8873 22.6579 16.6122 22.9973 16.6122 22.9973C16.6987 21.3301 17.5537 20.7669 17.5537 20.7669C17.4119 21.7403 17.4212 24.2342 18.2727 26.2131C19.2659 28.5175 18.2402 28.4141 19.6222 31.3045C21.362 34.9384 26.293 34.8937 26.293 34.8937C23.4658 35.708 20.3424 34.7224 18.8124 32.1912C18.2094 31.1903 17.9656 30.3684 17.8561 29.6526C17.1589 29.4182 16.0193 28.431 15.9499 28.3694C16.0052 28.3818 16.9107 28.5883 17.7619 28.5916C17.7328 27.9698 17.7174 27.4184 17.4936 26.8627C16.6701 26.7626 15.7785 26.2133 15.7785 26.2133C15.6876 27.8114 14.8679 28.6071 13.9401 28.8837L13.7049 30.0937C14.6009 31.2952 16.8605 33.0643 16.8605 33.0643C16.8605 33.0643 14.962 32.4721 13.5137 31.0685C13.3373 31.9723 13.1609 32.8762 12.9845 33.78C13.9086 34.5265 14.8723 35.1714 15.7939 35.7388C18.5053 37.4092 22.208 38.1687 23.167 38.1225C24.0893 37.9588 25.0409 37.757 25.9862 37.5317C25.0161 37.3081 22.7089 36.7291 21.4225 36.0218C22.3726 36.0695 26.0572 36.5569 29.5879 36.5785C32.8884 35.6253 35.4673 34.6814 35.4673 34.6814C35.4673 34.6814 34.109 32.7827 35.0724 30.5649C36.0359 28.347 38.1001 27.8193 39.0919 27.6784C39.9325 27.0445 41.0554 24.6553 41.1911 22.4745C41.3314 20.1993 39.7381 19.4143 38.8252 18.2328C37.9121 17.0514 37.3212 15.5076 36.1336 13.9836C37.2443 14.5311 37.9768 15.5199 37.9768 15.5199C38.1341 15.1051 38.9578 12.7698 38.2343 11.3554C37.4368 9.80071 35.6356 9.1004 35.6356 9.1004C35.8375 8.86887 36.3572 8.63162 36.3572 8.63162C33.7487 7.32053 31.3615 9.02955 31.3615 9.02955C31.2937 8.64366 31.3415 8.22906 31.3415 8.22906C30.012 9.34722 29.6357 11.4295 29.6357 11.4295C32.4505 11.411 33.4529 12.4999 33.4529 12.4999C30.4254 11.9785 27.026 12.2562 24.3915 13.5919C21.757 14.9274 19.3972 17.7055 19.3972 17.7055C19.7166 16.1059 20.5542 15.3857 20.5542 15.3857C19.1598 14.2936 17.6792 14.4726 17.6792 14.4726C17.9584 14.6747 18.2729 15.1989 18.2729 15.1989C17.6696 15.2342 17.078 15.3796 16.527 15.6277C16.2824 15.737 16.0472 15.866 15.8236 16.0137C15.2159 16.4101 14.7225 16.9161 14.3862 17.4512C13.9188 18.1885 13.7477 18.9794 13.9712 19.6137C13.9948 19.5916 14.0195 19.57 14.0427 19.5499ZM28.2386 18.7279C28.2386 18.7279 28.6458 17.3459 30.0987 16.7229C31.5517 16.0996 34.4561 16.5964 36.1049 18.3793C37.7537 20.1624 37.2709 22.0595 35.9212 22.7859C33.8668 23.8903 33.1187 22.6795 31.4222 22.1011C29.7257 21.5229 27.6497 21.0601 28.2386 18.7279ZM29.4338 23.4369C30.4318 23.2965 30.768 23.932 30.3933 24.8002C30.0185 25.6685 29.4755 26.0814 29.0129 26.1914C28.092 26.4076 26.9907 25.61 26.9629 24.9931C26.935 24.3761 28.4361 23.5757 29.4338 23.4369ZM29.9783 27.0506C30.6816 27.4749 32.2456 27.1402 32.3474 25.2121C32.3474 25.2121 33.2481 26.3904 32.2533 27.413C32.5294 27.8001 32.972 29.901 31.4005 30.7184C29.6745 31.6175 28.4791 29.8099 28.2215 29.3057C27.0539 29.1868 26.8411 28.1365 26.8411 28.1365C29.019 29.1868 29.9784 27.0506 29.9784 27.0506H29.9783ZM19.8803 24.299C20.1119 21.6122 22.1107 19.0735 24.4782 19.6427C26.7717 20.1948 26.3677 22.3032 25.8756 23.6636C25.3835 25.0239 25.5486 25.7642 25.1693 26.793C24.7899 27.8217 23.8072 28.6254 22.507 28.5451C20.8362 28.4418 19.6754 26.8949 19.8805 24.299H19.8803Z" fill="#797979"/>
<path fill-rule="evenodd" clip-rule="evenodd" d="M42.2327 26.9981C42.2327 26.9981 41.705 28.2282 39.5195 28.6563C37.0781 29.1347 35.4074 30.8973 36.532 32.4225C37.6826 33.9835 40.5576 33.5717 40.5576 33.5717C37.9741 34.989 36.0183 33.3512 36.0183 33.3512C36.9331 35.5585 40.2786 36.2707 42.9777 34.0343C45.6766 31.7979 45.9143 28.9645 45.9143 28.9645C45.592 29.6864 44.9196 30.4652 44.8779 30.5132C44.9147 30.4236 45.7245 28.4401 45.612 26.9333C45.4963 25.3909 44.2962 24.2095 42.1786 23.2578C42.0845 25.4202 40.5128 27.5148 40.5128 27.5148C41.2101 27.4102 42.2327 26.9981 42.2327 26.9981Z" fill="#797979"/>
<path fill-rule="evenodd" clip-rule="evenodd" d="M27.7313 25.2955C28.4747 25.8846 29.0376 25.6394 29.5297 25.0888C30.0218 24.5381 29.8673 24.0771 29.141 24.2928C28.4145 24.5086 28.0475 24.725 27.7142 24.9284C27.6356 24.9763 27.4628 25.0826 27.7313 25.2955Z" fill="#797979"/>
<path fill-rule="evenodd" clip-rule="evenodd" d="M38.5218 40.0827C40.0779 40.9173 42.5735 42.9671 43.3617 47.0188C43.28 46.8461 40.6913 41.4062 34.9647 41.198C28.6239 43.0409 21.9965 44.2888 20.8257 44.2611C20.8056 45.2498 22.7074 56.8566 23.5049 60.7772C27.8805 63.0722 34.3406 62.1175 37.1548 61.4235C42.0334 60.0446 45.3171 54.364 45.3171 54.364C45.0749 57.2113 43.0789 59.4831 43.0172 59.5542C45.8966 58.2045 49.802 54.7804 50.3742 53.5095C48.6796 48.0401 46.9852 42.5708 45.2906 37.1013C43.6625 38.1481 41.2317 39.163 38.5218 40.0827Z" fill="#797979"/>
<path fill-rule="evenodd" clip-rule="evenodd" d="M11.8479 28.7102C11.57 28.5684 11.3513 28.3818 11.2232 28.1673C11.2232 28.1673 11.5055 28.2629 11.9127 28.3093C12.1441 28.336 12.3775 28.3406 12.6097 28.3231C12.8888 28.3 13.1819 28.2383 13.4627 28.1103C13.747 27.9836 13.999 27.7943 14.1998 27.5566C14.7783 26.8733 14.8879 25.9895 14.6705 25.1411C14.5773 24.7812 14.4334 24.4363 14.2431 24.117C14.0312 23.7569 13.7654 23.4313 13.455 23.1516C13.2636 22.9768 13.0542 22.8226 12.8303 22.6919C12.583 22.5463 12.3175 22.4342 12.0406 22.3587C9.89353 21.7803 7.33014 24.4347 8.66023 28.0779C9.24787 29.6897 10.1825 31.0485 11.2761 32.2069L11.8479 28.7102Z" fill="#797979"/>
<path fill-rule="evenodd" clip-rule="evenodd" d="M46.6531 26.4068C46.6531 26.4068 48.0675 30.0438 44.3841 34.074C41.9935 36.6189 38.1777 37.2359 36.1723 35.4992C36.1723 35.4992 30.08 37.7756 25.0278 38.7582C19.9779 39.7407 16.2979 39.9613 17.1538 37.5953C16.7731 37.4333 16.315 37.1911 15.8646 36.9352C13.332 37.8204 12.7058 39.827 13.3639 41.2738C12.0436 40.5536 11.3927 38.126 14.5547 36.1531C14.2044 35.9343 13.9746 35.7828 13.9746 35.7828C13.9746 35.7828 11.1922 36.9334 9.97058 38.9508C8.74901 40.9682 9.7131 42.9733 12.3105 43.3079C14.9078 43.6426 22.1944 43.4632 32.6444 40.6868C43.0943 37.9104 51.0745 33.0133 52.155 29.9288C53.2354 26.8443 48.8125 26.1376 46.6531 26.4068Z" fill="#797979"/>
<path fill-rule="evenodd" clip-rule="evenodd" d="M29.4755 20.6745C29.517 20.7691 29.9254 21.118 30.0053 21.2084C30.0851 21.2989 30.2596 21.3556 30.2596 21.3556C30.5574 21.4478 30.8551 21.5399 31.1529 21.6319C31.4505 21.7241 32.1169 21.8377 32.1491 21.8571C32.1813 21.8763 32.954 22.0666 32.954 22.0666C32.954 22.0666 34.4497 22.024 34.4753 22.024C34.5009 22.024 34.9832 21.8763 35.0024 21.8633C35.0215 21.8504 35.51 21.4003 35.51 21.4003C35.5764 21.0446 35.6428 20.689 35.7093 20.3333C35.7093 20.0056 35.7093 19.6778 35.7093 19.3501C35.7093 19.0223 35.163 18.1998 35.1566 18.1741C35.15 18.1484 34.9151 17.8191 34.9151 17.8191C34.7729 17.7062 34.6305 17.5933 34.4881 17.4803L33.4213 17.1145C33.4213 17.1145 32.9154 16.9723 32.8965 16.9679C32.8775 16.9636 32.2255 16.9154 32.2062 16.9328C32.1868 16.95 31.5116 16.9328 31.5116 16.9328C31.2933 16.9235 31.0748 16.9141 30.8565 16.9049C30.6382 16.8957 30.0946 17.1032 30.0693 17.1145C30.044 17.1261 29.4301 17.6032 29.4172 17.6224C29.4041 17.6416 29.1601 18.2944 29.1601 18.2944C29.1601 18.2944 29.0574 18.8242 29.0508 18.8435C29.0443 18.8629 29.1859 19.9746 29.1859 19.9746C29.1859 19.9746 29.4338 20.5799 29.4755 20.6745Z" fill="#797979"/>
<path fill-rule="evenodd" clip-rule="evenodd" d="M21.4614 26.7477C21.7378 26.8505 22.0141 26.9535 22.2904 27.0563C22.705 27.0563 23.1194 27.0563 23.534 27.0563C23.563 27.0563 24.2377 26.6419 24.2377 26.6419C24.4401 26.5039 24.6426 26.3659 24.845 26.2279C25.0476 26.0899 25.1729 25.5332 25.1825 25.4562C25.1922 25.3789 25.2693 24.4971 25.2693 24.4971C25.2693 24.4971 25.4822 23.8149 25.5015 23.7594C25.521 23.704 25.5874 23.345 25.6328 23.2964C25.6782 23.2477 25.781 22.8333 25.781 22.8333L25.9144 22.3318C25.908 22.1503 25.9016 21.9689 25.8952 21.7874C25.9016 21.5994 25.908 21.4114 25.9144 21.2233C25.7988 21.0467 25.6831 20.8699 25.5675 20.6931C25.4388 20.5458 25.3102 20.3986 25.1815 20.2512C24.9342 20.2153 24.6867 20.1791 24.4393 20.1432C24.4071 20.5545 24.375 20.9658 24.3428 21.3771C23.8481 21.2903 23.3533 21.2036 22.8583 21.1168C22.1499 21.4616 21.4415 21.8063 20.7331 22.1511L20.5698 22.4861C20.4302 22.9714 20.2904 23.4565 20.1506 23.9418C20.2244 24.4462 20.2983 24.9507 20.3721 25.4552C20.4461 25.9596 20.9796 26.3998 21.0084 26.4191C21.0373 26.4385 21.4614 26.7477 21.4614 26.7477Z" fill="#797979"/>
<path fill-rule="evenodd" clip-rule="evenodd" d="M50.5257 51.8209C50.2525 51.0595 49.9794 50.298 49.7063 49.5365C49.3946 48.5211 49.083 47.5056 48.7712 46.4901L47.6047 43.0001C47.338 42.0393 47.0714 41.0784 46.8047 40.1177C46.3901 38.8871 45.9756 37.6564 45.5611 36.4258L38.016 39.7098C36.6062 40.1041 35.1964 40.4982 33.7867 40.8924C32.5528 41.2565 31.3189 41.6207 30.0849 41.985L26.2812 42.7686C24.9103 43.0599 23.5393 43.3513 22.1684 43.6426C21.7356 43.7669 21.303 43.8912 20.8702 44.0155C24.4177 45.6222 28.2486 42.7557 33.0807 44.4013C37.913 46.0471 41.0753 49.6455 41.1781 52.2161C41.1781 52.2161 42.4506 50.7764 42.5278 49.2217C43.9287 55.224 40.6384 60.4939 29.7132 62.4988C29.7132 62.4988 34.122 62.8202 36.4612 62.2804C38.8003 61.7406 40.8312 61.0336 40.8312 61.0336C41.7203 60.662 42.6093 60.2902 43.4982 59.9186C44.1473 59.5973 44.7964 59.2761 45.4455 58.9546C46.1427 58.4084 46.84 57.8621 47.5373 57.3158C48.302 56.5929 49.0669 55.8698 49.8316 55.1469C50.2011 54.6264 50.5706 54.1057 50.9401 53.5852L50.5257 51.8209Z" fill="#4B4B4B"/>
<path fill-rule="evenodd" clip-rule="evenodd" d="M27.3996 37.631C27.7274 37.4702 28.0551 37.3097 28.383 37.149C27.3996 34.575 26.4163 32.0012 25.433 29.4274L17.9848 27.7374C17.9848 27.7374 16.6994 27.4737 15.4841 26.7477L15.0414 25.6968C13.8194 23.5248 11.5516 23.258 10.1637 24.8647C8.7757 26.4713 9.39189 29.196 11.7446 31.4325C14.0973 33.6689 19.4308 37.3577 25.7032 37.9234L27.3996 37.631Z" fill="#4B4B4B"/>
<path fill-rule="evenodd" clip-rule="evenodd" d="M31.1724 21.2976C32.438 21.7988 34.3109 22.9401 35.5448 22.226C36.7788 21.5121 36.7943 19.8971 35.1377 18.489C34.8353 18.2328 33.1928 16.9727 31.4284 17.1269C29.664 17.2811 28.6212 18.6695 28.8969 19.7367C29.1727 20.8038 29.9969 20.8318 31.1724 21.2976ZM30.7666 19.5963C30.8313 18.8128 31.5609 18.2314 32.3985 18.2997C33.236 18.3681 33.8624 19.056 33.7989 19.839C33.7944 19.9071 33.784 19.9746 33.7681 20.0411C33.5506 19.5721 33.0693 19.223 32.4869 19.1756C31.7233 19.1139 31.0479 19.5906 30.8889 20.2693C30.7909 20.0593 30.7488 19.8274 30.7666 19.5963Z" fill="#4B4B4B"/>
<path fill-rule="evenodd" clip-rule="evenodd" d="M22.5597 27.8943C24.4212 27.8373 24.6619 26.0342 24.9504 24.6075C25.2389 23.1808 26.3293 21.6802 24.9504 20.6065C23.4773 19.4591 20.8661 21.2467 20.6038 23.807C20.462 25.1889 20.6995 27.9529 22.5597 27.8943ZM22.1139 23.3829C22.4887 22.6318 23.3632 22.3079 24.0665 22.6574C24.2737 22.7613 24.4507 22.9171 24.5802 23.1094C23.9165 22.8949 23.1601 23.2264 22.8174 23.9119C22.5567 24.4347 22.6059 25.0271 22.8959 25.4555C22.8306 25.435 22.7672 25.4092 22.7062 25.3784C22.0027 25.0271 21.7376 24.1341 22.1139 23.3829Z" fill="#4B4B4B"/>
<path fill-rule="evenodd" clip-rule="evenodd" d="M28.3379 25.7122C28.8009 25.8857 28.8425 25.9629 29.1574 25.7122C29.4722 25.4616 29.9157 25.0278 29.9157 25.0278C29.9736 24.9046 30.0313 24.7816 30.0892 24.6585C30.0892 24.5727 30.0892 24.4869 30.0892 24.4013C30.0892 24.3885 29.9478 24.0382 29.9478 24.0382C29.9478 24.0382 29.778 23.9225 29.7678 23.9225C29.7577 23.9225 29.5236 23.9162 29.4562 23.9354C29.3887 23.9547 29.2343 23.9643 29.1347 24.0126C29.0352 24.061 28.2993 24.4399 28.2993 24.4399C28.2993 24.4399 27.8748 25.5394 28.3379 25.7122Z" fill="#4B4B4B"/>
<path fill-rule="evenodd" clip-rule="evenodd" d="M15.6197 20.6261C15.7112 20.2985 16.256 19.8133 16.256 19.8133C15.9862 21.42 16.8923 22.3711 16.8923 22.3711C18.878 22.6538 19.7135 22.037 19.7135 22.037C19.7135 22.037 23.5569 16.7543 20.369 15.9059C17.1811 15.0576 15.6679 17.465 15.6679 17.465C16.097 17.2963 16.8923 17.3203 16.8923 17.3203C15.2728 18.4861 15.6197 20.6261 15.6197 20.6261Z" fill="#4B4B4B"/>
<path fill-rule="evenodd" clip-rule="evenodd" d="M36.1654 15.6104C36.5553 15.4733 36.9452 15.3362 37.335 15.199C38.4788 12.5256 36.6249 11.3431 36.6249 11.3431C37.012 11.3309 37.3996 11.3438 37.785 11.3816C36.0342 9.24797 33.4277 10.0512 33.4277 10.0512C33.646 9.56934 34.1859 9.08096 34.1859 9.08096C32.1038 9.13236 30.5422 10.5912 30.3367 11.7158L31.2042 13.4255L36.1654 15.6104Z" fill="#4B4B4B"/>
<path fill-rule="evenodd" clip-rule="evenodd" d="M41.7389 27.4369C42.8282 26.844 42.4701 25.4687 41.686 24.8127C41.686 24.8127 40.4519 26.8627 40.2399 27.514C40.028 28.1652 40.6496 28.0297 41.7389 27.4369Z" fill="#4B4B4B"/>
<path fill-rule="evenodd" clip-rule="evenodd" d="M35.9052 38.1805C43.7165 36.3296 50.0468 31.7539 50.5352 29.7102C51.0236 27.6666 47.7331 27.6794 47.7331 27.6794C47.4633 28.8233 46.5446 29.8227 46.5446 29.8227C46.5446 29.8227 45.679 31.1614 45.4778 31.5919C45.6556 31.2112 45.8333 30.8305 46.0111 30.4497C46.0862 30.1862 46.1612 29.9228 46.2363 29.6593C46.294 29.2051 46.3519 28.751 46.4098 28.2969C46.3647 27.862 46.3197 27.4272 46.2747 26.9923C46.129 26.5595 45.9834 26.1269 45.8379 25.6941C45.5314 25.2293 45.2251 24.7644 44.9187 24.2996C44.6573 24.1261 44.396 23.9526 44.1346 23.7791C44.0169 23.8198 43.899 23.8606 43.7812 23.9013C43.6635 23.9421 45.6577 26.4011 44.2891 29.5631C44.2891 29.5631 44.4755 28.2713 44.1925 27.5064C44.1925 27.5064 43.4153 30.7006 40.626 32.1658C37.8368 33.6311 35.7988 30.9934 37.6954 29.0682C37.6954 29.0682 36.6156 29.216 36.4373 29.6256C36.2588 30.0353 35.7545 30.1994 35.6003 30.9191C35.507 31.3627 35.4682 31.8158 35.4844 32.2686C35.4405 32.6274 35.439 32.9901 35.4803 33.3491C35.5488 33.9403 36.1143 34.6087 36.1143 34.6087C36.1893 34.6699 36.2642 34.7312 36.3392 34.7923C35.8914 34.9711 35.4439 35.1497 34.9961 35.3285C33.5695 35.8327 32.1427 36.3369 30.7161 36.8412C29.3474 37.1689 27.9788 37.4967 26.6102 37.8244C25.2767 38.1265 23.9431 38.4285 22.6096 38.7306C21.7934 38.7434 20.9772 38.7562 20.1611 38.769C19.6598 38.6759 19.1586 38.5827 18.6572 38.4896C18.4645 38.1522 18.2717 37.8147 18.0788 37.4774C17.3253 37.0966 16.5717 36.7159 15.8182 36.3352C15.5275 36.4107 15.2366 36.4862 14.9458 36.5617C14.5302 36.819 14.1148 37.0763 13.6992 37.3336C13.2837 37.5909 12.4781 39.0043 12.6967 39.9422C12.9216 40.9189 13.2107 43.194 22.0794 41.7544C30.9481 40.315 35.9052 38.1805 35.9052 38.1805ZM44.4371 33.1548C44.5755 32.9732 44.7139 32.7917 44.8523 32.6101C44.669 32.8822 44.4681 33.1753 44.2702 33.4762C43.7789 34.2229 43.0626 34.4726 42.5328 34.8787C42.8462 34.6382 43.1597 34.3978 43.4733 34.1573L44.4371 33.1548ZM41.179 35.4106C41.6001 35.2551 42.0212 35.0997 42.4423 34.9442C41.9946 35.2567 41.3984 35.4565 40.5644 35.6332L41.179 35.4106ZM36.9958 35.3271L38.7569 35.8597C38.2954 35.8597 37.9161 35.8021 37.6076 35.7029C37.0409 35.5205 36.3436 34.7965 36.3386 34.7915L36.9958 35.3271Z" fill="#4B4B4B"/>
<path fill-rule="evenodd" clip-rule="evenodd" d="M29.7132 25.3531C30.0538 25.1923 30.0056 24.8517 30.009 24.8357C30.0124 24.8196 30.0923 24.6172 30.1277 24.4179C30.1633 24.2187 29.9703 24.1672 29.7265 24.0357C29.4826 23.904 29.0067 23.9906 29.0067 23.9906C28.9318 24.0677 28.8567 24.1449 28.7817 24.2221C29.5081 24.6269 28.6084 25.0833 28.5439 25.816C28.9097 25.9539 29.3721 25.5138 29.7132 25.3531Z" fill="#383838"/>
<path fill-rule="evenodd" clip-rule="evenodd" d="M19.4852 24.7425C19.4852 24.781 19.7358 26.4969 19.765 26.8202C19.794 27.1433 20.2757 28.0684 20.3052 28.1453C20.3346 28.2224 22.1077 29.3792 22.2621 29.4468C22.4164 29.5142 23.4959 29.5334 23.5249 29.5142C23.5539 29.4948 24.9516 28.6653 24.9804 28.637C25.0093 28.6087 25.7614 26.4873 25.7614 26.4873C25.6231 25.7675 25.4849 25.0477 25.3468 24.3279C24.8745 24.3377 23.692 26.5163 22.5544 26.6124C21.4169 26.7086 20.8129 25.6099 20.4852 24.119C20.4846 24.1191 19.4852 24.7039 19.4852 24.7425Z" fill="#383838"/>
<path fill-rule="evenodd" clip-rule="evenodd" d="M34.7387 24.1191C34.7773 24.1191 36.5511 23.8234 36.9496 23.6949C37.3481 23.5663 37.9649 22.6538 37.9649 22.6538C38.1707 22.0454 38.3765 21.4371 38.5823 20.8287C38.7881 20.2204 38.0939 19.5562 38.0811 19.5175C38.0683 19.479 36.2298 16.9471 35.15 16.4663C34.0703 15.9854 34.3917 16.2022 34.2633 16.1636C34.1348 16.125 33.5433 16.4336 33.5177 16.4663C33.4921 16.499 33.4533 17.3589 33.4533 17.3589C35.2914 18.3229 35.6802 20.4051 34.668 21.0895C33.6557 21.774 32.6434 21.1861 31.3198 21.5812C31.3198 21.5812 31.5255 22.5382 31.5514 22.5774C31.5774 22.6165 34.7 24.1191 34.7387 24.1191Z" fill="#383838"/>
<path fill-rule="evenodd" clip-rule="evenodd" d="M17.2842 18.9009C17.0787 19.5491 17.1043 20.5492 17.2873 21.2576C17.2873 21.2576 17.297 21.5903 17.297 21.6191C17.297 21.648 19.8131 20.5202 19.8131 20.5202C20.3047 19.8647 20.7964 19.2092 21.2879 18.5537C21.7796 17.8982 21.4904 17.2233 19.9577 16.751C18.425 16.2787 17.5792 17.2266 17.5792 17.2266C17.7978 17.2137 18.1063 17.2909 18.1063 17.2909C16.9109 18.091 16.7438 19.2992 16.7438 19.2992C16.8537 19.1321 17.2842 18.9009 17.2842 18.9009Z" fill="#383838"/>
<path fill-rule="evenodd" clip-rule="evenodd" d="M35.5549 15.2469C35.5549 15.2469 36.1237 15.4878 36.5961 14.4083C37.0685 13.3287 35.9381 12.261 35.9381 12.261C36.1126 12.3151 36.284 12.3786 36.4515 12.4513C35.6322 10.7935 33.9255 11.0442 33.9255 11.0442C34.0532 10.8732 34.398 10.6875 34.398 10.6875C32.6242 10.2731 31.5382 11.8379 31.5382 11.8379C31.5113 12.0746 31.4845 12.3113 31.4577 12.548C31.7791 13.0042 32.1004 13.4605 32.4216 13.9168L35.5549 15.2469Z" fill="#383838"/>
<path fill-rule="evenodd" clip-rule="evenodd" d="M41.2939 25.7193C40.8911 26.2719 40.4883 26.8248 40.0856 27.3774C40.0685 27.5916 40.0513 27.8058 40.0342 28.02C40.499 27.8357 40.9639 27.6515 41.4289 27.4672C42.0138 26.7026 41.6923 26.0209 41.2939 25.7193Z" fill="#383838"/>
<path fill-rule="evenodd" clip-rule="evenodd" d="M36.5913 33.3267C36.3855 33.2142 36.1797 33.1018 35.9739 32.9894C35.8663 33.0456 35.7587 33.1018 35.6511 33.1581C35.6511 33.3058 35.6511 33.4538 35.6511 33.6015C35.6511 33.616 35.8438 34.0593 35.8438 34.0593C36.0445 34.3325 36.245 34.6056 36.4457 34.8788C36.7783 35.0651 37.1108 35.2516 37.4435 35.4379C37.8804 35.5375 38.3175 35.6371 38.7544 35.7367C39.0452 35.7656 39.3361 35.7946 39.6269 35.8235C39.9176 35.8523 40.7691 35.6259 40.7886 35.6114C40.8079 35.5969 41.7526 35.2982 41.7716 35.2739C41.7908 35.2497 42.3918 35.07 43.485 34.6651C44.5781 34.2602 45.4131 33.3542 45.7086 32.9235C46.7818 32.3709 48.0769 30.6902 46.3415 30.2179C46.3415 30.2179 45.9687 30.0057 46.0946 29.3312C46.2203 28.6565 45.8022 28.0972 45.3971 29.4179C44.9921 30.7386 43.5431 32.1716 43.5431 32.1716C43.7232 31.799 43.797 30.5354 43.797 30.5354C42.9873 31.7212 41.4223 33.8096 39.3144 33.7969C38.6525 33.7301 37.9906 33.6631 37.3286 33.5963L36.5913 33.3267Z" fill="#383838"/>
<path fill-rule="evenodd" clip-rule="evenodd" d="M39.382 36.185C38.357 35.8283 37.3319 35.4716 36.3069 35.1149C36.159 35.0744 36.0112 35.0337 35.8633 34.993C34.8737 35.3893 33.884 35.7854 32.8943 36.1816C31.9839 36.4515 31.0734 36.7215 30.163 36.9914C29.9154 37.0537 29.6677 37.1161 29.42 37.1786C29.8008 37.0561 30.1815 36.9337 30.5622 36.8112C31.1406 36.628 31.7191 36.445 32.2975 36.2618L36.1328 34.8258C35.9465 34.4883 35.7602 34.1509 35.5737 33.8136C35.4678 33.2866 35.3617 32.7597 35.2557 32.2326C35.1754 32.1362 35.095 32.0398 35.0146 31.9434C35.1153 31.6918 35.216 31.44 35.3166 31.1883C32.2963 31.3339 29.2761 31.4796 26.2559 31.6254C23.2357 31.771 18.4283 29.7487 17.1557 28.759C17.1557 28.759 16.0888 28.4699 15.7162 28.2706C15.7162 28.2706 16.1113 29.0998 16.6368 29.4949C16.6368 29.4949 15.2534 28.8877 14.4725 28.2369C14.609 27.9188 14.7457 27.6007 14.8822 27.2826C14.8581 27.1813 14.834 27.0801 14.81 26.9788C14.7859 26.8777 14.3469 24.8002 12.1367 25.263C9.92644 25.7258 10.4335 28.8105 11.963 29.8516C11.963 29.8516 12.7536 29.7487 13.7176 30.687C14.6816 31.6252 15.1812 32.0061 15.1812 32.0061C15.4833 32.1972 15.7852 32.3885 16.0873 32.5797C17.2802 33.3846 19.5046 34.498 21.2784 35.1438C21.2784 35.1438 19.6812 35.2499 18.6403 35.0821C18.6403 35.0821 21.8985 36.3675 24.4305 36.7015C26.9626 37.0358 28.0358 37.4856 28.0358 37.4856C28.193 37.4599 28.3501 37.4341 28.5073 37.4084L27.6373 37.6286C26.7868 37.8535 25.9365 38.0785 25.0861 38.3035C24.2999 38.4385 23.5137 38.5735 22.7275 38.7084C21.8235 38.7877 20.9194 38.8669 20.0155 38.9461C19.2999 38.402 18.5844 37.858 17.869 37.3138C17.3441 37.2151 16.8193 37.1165 16.2945 37.0178C15.0799 37.8022 14.3795 39.8393 16.9243 40.6745C19.4692 41.5099 28.8648 40.3406 36.4224 36.4845C36.4224 36.4838 38.7261 36.6959 39.382 36.185Z" fill="#383838"/>
<path fill-rule="evenodd" clip-rule="evenodd" d="M50.2718 51.3033C50.1004 50.6908 49.9291 50.0782 49.7575 49.4655L48.858 46.9208C48.5859 46.0339 48.3138 45.147 48.0418 44.2601C47.8404 43.6088 47.639 42.9576 47.4376 42.3064L46.8142 40.1277C46.5809 39.3713 46.3473 38.615 46.1138 37.8587C45.8781 37.3981 45.6425 36.9376 45.4068 36.477C44.9763 36.6698 44.5458 36.8625 44.1153 37.0554C43.4769 37.3744 42.8384 37.6934 42.2 38.0124C41.2275 38.4173 40.2551 38.8223 39.2826 39.2273C38.4001 39.4779 37.5175 39.7284 36.635 39.979C35.7525 40.2296 38.6015 40.7631 39.1412 41.3897C39.6811 42.0162 40.7028 42.3825 41.0596 42.9804C41.4163 43.5781 41.8982 43.9347 42.0814 44.3973C42.2647 44.86 42.5444 45.0705 42.7465 45.6698C43.5852 47.3568 44.3275 49.3364 44.366 50.1718C44.366 50.1718 44.8416 48.5393 44.8546 46.637C44.8546 46.637 47.1486 53.6742 43.8007 57.1895C40.5486 60.6212 42.1681 60.5119 43.19 60.0364C44.2119 59.5608 46.0755 58.3911 46.0755 58.3911C46.7096 57.8921 47.3436 57.3929 47.9776 56.8938C48.526 56.3839 49.0746 55.8742 49.623 55.3644C50.0492 54.8351 50.4756 54.3061 50.902 53.7769C50.9169 53.6804 50.9317 53.584 50.9466 53.4876L50.2718 51.3033Z" fill="#383838"/>
<path fill-rule="evenodd" clip-rule="evenodd" d="M28.9035 54.2597C28.0544 47.5889 22.5989 44.9091 20.4396 44.9958C21.2879 50.3116 22.1361 55.6276 22.9845 60.9436C23.0338 61.0035 23.083 61.0635 23.1324 61.1235C24.2035 61.4961 25.2745 61.8689 26.3458 62.2415C33.2349 60.3649 30.3301 52.0748 29.546 51.0849C29.6874 52.987 28.9035 54.2597 28.9035 54.2597Z" fill="#A7A5A5"/>
<path fill-rule="evenodd" clip-rule="evenodd" d="M52.7284 28.1406C52.5853 27.9108 52.4424 27.6811 52.2993 27.4514C52.0648 27.228 51.8301 27.0047 51.5956 26.7813C51.2647 26.6368 50.9337 26.4921 50.6027 26.3476C50.0357 26.2479 49.4685 26.1484 48.9013 26.0487C48.8483 26.1081 48.7954 26.1676 48.7423 26.227C51.5956 26.8054 52.2505 29.6008 50.1496 32.8206C50.4436 32.6937 50.7377 32.5667 51.0317 32.4399C51.2213 32.2245 51.4109 32.0094 51.6004 31.794C51.79 31.5787 52.3138 30.8975 52.3187 30.8834C52.3234 30.8692 52.6947 29.9193 52.6947 29.9193C52.7219 29.6429 52.7492 29.3666 52.7765 29.0901L52.7284 28.1406Z" fill="#A7A5A5"/>
<path fill-rule="evenodd" clip-rule="evenodd" d="M11.7446 42.1522C9.58531 40.404 10.7806 38.1996 13.5184 35.6933C13.5184 35.6933 12.1756 36.2268 10.4273 37.5958C8.67908 38.9647 8.82062 40.1406 8.82062 40.1406C8.86559 40.6397 8.91056 41.1389 8.95553 41.6379C9.0005 42.137 9.57882 42.7433 9.68178 42.8463C9.78473 42.9492 11.1018 43.5254 11.1018 43.5254C11.5967 43.6052 12.0916 43.6849 12.5865 43.7646C13.0813 43.8444 14.7264 44.1181 14.7521 44.1181C15.2234 44.1181 15.6946 44.1181 16.1659 44.1181C17.2114 43.9059 18.2567 43.6939 19.3022 43.4817C20.3475 43.2695 13.9039 43.9003 11.7446 42.1522Z" fill="#A7A5A5"/>
<path fill-rule="evenodd" clip-rule="evenodd" d="M11.932 32.473C8.44769 29.1377 8.07308 25.6257 9.25745 24.0557C10.4418 22.4857 12.1045 22.3704 13.0813 22.679C12.9346 22.4861 12.7878 22.2934 12.6411 22.1006C12.3375 22.0266 12.0339 21.9527 11.7304 21.8788C11.4203 21.8788 11.1102 21.8788 10.8001 21.8788C10.4916 21.9766 10.1832 22.0743 9.8747 22.1721C9.518 22.4725 9.16127 22.7729 8.80457 23.0734C8.60698 23.4237 8.4094 23.774 8.21183 24.1242C8.07528 24.5017 7.93872 24.8793 7.80217 25.2569C7.80217 25.5542 7.80217 25.8514 7.80217 26.1486C7.85516 26.6177 7.90815 27.0867 7.96116 27.5558C8.10574 27.9576 8.25031 28.3592 8.3949 28.7608C8.64393 29.2686 8.89296 29.7763 9.14199 30.284C9.5019 30.8576 9.8618 31.4312 10.2217 32.0046C10.5221 32.334 10.8226 32.6633 11.123 32.9925C11.6644 33.4489 12.2059 33.9052 12.7473 34.3615L14.4921 35.5198C14.9933 35.8074 15.4946 36.095 15.9958 36.3825C16.5567 36.6637 17.1175 36.9449 17.6783 37.226C18.4721 37.496 19.2657 37.7659 20.0593 38.0359L22.7347 38.3732C19.3489 37.3338 15.4164 35.8089 11.932 32.473Z" fill="#A7A5A5"/>
<path fill-rule="evenodd" clip-rule="evenodd" d="M14.103 20.2567C14.1501 20.1517 14.1973 20.0467 14.2444 19.9418C14.3322 20.3016 14.42 20.6616 14.5079 21.0215C14.6707 21.3385 14.8336 21.6556 14.9964 21.9726C15.1593 22.2897 15.639 22.7568 15.6583 22.7952C15.6775 22.8336 16.7894 23.5279 16.7894 23.5279C16.798 23.2837 16.8065 23.0394 16.815 22.7952C16.3234 22.5349 14.8871 21.0022 15.1185 18.8236C15.1185 18.8236 14.6943 18.83 14.3468 19.0485C14.3468 19.0485 14.5496 16.1051 18.1192 15.1476C18.0626 15.0732 18.006 14.9987 17.9494 14.9243C17.8928 14.8498 19.4427 14.685 20.7216 15.5397C20.7965 15.4904 20.8715 15.4412 20.9466 15.3918C20.9038 15.2675 20.861 15.1433 20.8181 15.019C20.5567 14.8498 20.2953 14.6806 20.0339 14.5114C19.672 14.3979 19.3099 14.2844 18.9479 14.1709C18.6567 14.143 18.3652 14.1151 18.074 14.0872C17.8083 14.1172 17.5426 14.1472 17.277 14.1772C17.2084 14.2372 17.14 14.2972 17.0714 14.3572C17.0972 14.4514 17.1229 14.5457 17.1485 14.6399L16.7058 15.0771C16.3973 15.1671 16.0888 15.2571 15.7804 15.347C15.4161 15.6448 15.052 15.9425 14.6878 16.2403C14.5058 16.5296 14.3237 16.8187 14.1415 17.108C13.998 17.4166 13.8545 17.7254 13.7111 18.034C13.6446 18.4132 13.5782 18.7923 13.5118 19.1715C13.5654 19.4648 13.6189 19.758 13.6725 20.0513L14.103 20.2567Z" fill="#A7A5A5"/>
<path fill-rule="evenodd" clip-rule="evenodd" d="M20.5552 22.5864C20.5263 22.8317 20.4974 23.0769 20.4684 23.3223C20.4684 23.4679 20.4684 23.6135 20.4684 23.7592C21.2976 22.1108 22.194 20.4431 25.0474 20.5331C24.9361 20.3736 24.8247 20.2141 24.7133 20.0546C24.5398 20.0246 24.3663 19.9946 24.1928 19.9647C24.0439 19.9411 23.895 19.9175 23.7461 19.8939C23.4719 19.9463 23.1977 19.9988 22.9235 20.0513C22.7542 20.1425 22.5851 20.2335 22.4159 20.3245C22.2306 20.4841 22.0454 20.6435 21.8602 20.8031C21.6738 20.9979 21.4875 21.1929 21.3011 21.3878C21.1832 21.5409 21.0655 21.6941 20.9476 21.8473L20.5552 22.5864Z" fill="#A7A5A5"/>
<path fill-rule="evenodd" clip-rule="evenodd" d="M31.2042 16.9857C31.2042 16.9857 30.6868 16.7654 29.8577 17.2186C29.0285 17.6718 28.6769 18.5537 28.6769 18.5537C28.5902 18.7558 28.5034 18.9579 28.4165 19.16C28.468 19.406 28.5195 19.6522 28.571 19.8984C28.6225 20.1446 28.9133 20.5202 28.9325 20.5395C28.9516 20.559 29.4242 20.91 29.4242 20.91C29.6844 21.0434 29.9447 21.1768 30.205 21.3101C30.4524 21.3358 30.6998 21.3616 30.9472 21.3873C28.8907 20.2689 28.9035 18.0236 31.2042 16.9857Z" fill="#A7A5A5"/>
<path fill-rule="evenodd" clip-rule="evenodd" d="M37.8541 10.0417C37.8541 10.0417 37.454 9.58385 37.4395 9.56934C37.425 9.55483 36.6973 8.9476 36.6973 8.9476C36.8419 8.8592 36.9865 8.7708 37.131 8.68241C37.2757 8.59402 36.7743 8.37371 36.7598 8.3595C36.7453 8.3453 36.138 8.00293 36.138 8.00293L35.1308 7.79146H33.6169C33.3566 7.84127 33.0962 7.89107 32.8359 7.94088C32.5774 7.99234 32.3187 8.04379 32.06 8.09523C31.8014 8.14669 31.6552 8.04214 31.6552 8.00371C31.6552 7.96527 31.6214 7.68558 31.6214 7.68558L31.2941 7.77603C31.2941 7.77603 30.7446 8.05557 30.4264 8.60029C30.1084 9.14502 29.7951 9.6317 29.7951 9.6317C29.657 9.93856 29.5187 10.2454 29.3805 10.5523C29.2906 10.962 29.2007 11.3717 29.1107 11.7814C29.3855 11.7605 29.6601 11.7396 29.9349 11.7188C30.2095 11.6979 30.359 9.96435 31.1688 9.11599C31.2041 9.30555 31.2395 9.4951 31.2748 9.68465C31.3102 9.87419 33.2703 7.8049 35.6893 8.60509C35.5255 8.8027 35.3617 9.00034 35.1978 9.19797C35.0338 9.39559 37.695 9.86509 38.5562 11.9344C38.5632 11.7116 38.5702 11.4888 38.5772 11.266C38.4534 11.0202 38.3297 10.7743 38.206 10.5285L37.8541 10.0417Z" fill="#A7A5A5"/>
<path fill-rule="evenodd" clip-rule="evenodd" d="M43.4018 25.7001C43.0741 25.7708 43.1371 27.313 42.0972 28.2835C41.6142 28.7344 41.4977 28.7101 41.334 29.0611C41.0602 29.6486 41.6665 30.3625 42.7943 29.0611C43.9223 27.7597 43.7294 25.6294 43.4018 25.7001Z" fill="#A7A5A5"/>
<path fill-rule="evenodd" clip-rule="evenodd" d="M40.3797 29.6346C40.1417 29.6346 39.9273 29.778 39.8362 29.9977C39.7452 30.2176 39.7956 30.4705 39.9638 30.6387C40.1321 30.8068 40.3851 30.8572 40.6048 30.766C40.8245 30.675 40.9678 30.4605 40.9678 30.2226C40.9678 30.0667 40.9058 29.9171 40.7955 29.8069C40.6852 29.6967 40.5356 29.6346 40.3797 29.6346Z" fill="#A7A5A5"/>
<path fill-rule="evenodd" clip-rule="evenodd" d="M37.6534 15.7282C37.4528 15.4586 37.2521 15.1893 37.0514 14.9198C36.9742 14.815 36.9018 14.7177 36.8371 14.6299C36.2294 13.8929 34.1919 12.5507 32.3827 12.1821C31.8752 12.0855 31.3678 11.9889 30.8603 11.8922H29.2504C29.2504 11.8922 27.0324 12.0671 27.0047 12.0756C26.977 12.0841 24.7684 12.7898 24.7391 12.808C24.7098 12.8263 22.9267 13.897 22.9267 13.897C23.1998 14.4178 23.4727 14.9387 23.7458 15.4594L25.4977 16.4653C25.4977 16.4653 26.5511 18.3348 26.5773 18.4118C26.6033 18.4888 27.219 20.7778 27.219 20.8796C27.219 20.9816 26.8087 22.9617 26.6787 23.4168C26.5487 23.8718 26.0108 27.8079 25.5297 28.8105C25.0486 29.813 22.9447 31.6067 21.9421 32.0494C20.9396 32.4922 21.1524 33.817 21.1648 33.8355C21.1771 33.8541 22.1811 34.3832 22.1811 34.3832C22.5472 34.5137 22.9132 34.6443 23.2793 34.775C23.5791 34.779 23.8788 34.7831 24.1786 34.7871C25.8983 35.0277 28.8472 34.8891 31.3561 34.3074C31.9371 33.9444 32.5181 33.5815 33.0989 33.2185C33.3643 32.5528 33.6295 31.887 33.8948 31.2211C34.0367 30.4624 34.1787 29.7035 34.3206 28.9447C34.6224 28.1417 34.9242 27.3386 35.226 26.5355C35.5278 25.7325 36.3441 24.8389 36.4029 24.6846C36.4615 24.5304 37.3853 22.1782 37.3853 22.1782L37.752 18.0716L37.6534 15.7282ZM28.2018 25.8511C28.1831 25.8419 28.0335 25.7634 28.012 25.751C27.9906 25.7386 27.799 25.646 27.7559 25.5735C27.713 25.501 27.5724 25.336 27.5584 25.3206C27.5443 25.3051 27.307 25.1077 27.307 25.1077C27.307 25.1077 27.341 24.8578 27.3472 24.8439C27.3534 24.8301 27.5584 24.6079 27.5584 24.6079C27.5697 24.5627 27.5811 24.5175 27.5925 24.4723C27.6063 24.4723 27.9995 24.3767 28.012 24.3673C28.0246 24.3579 28.7529 23.9926 28.7529 23.9926C28.9288 23.9664 29.1046 23.9402 29.2804 23.9139C29.3946 23.9027 29.5088 23.8913 29.6229 23.8801C29.6759 23.8944 29.7288 23.9088 29.7817 23.9233C29.8059 23.9463 29.8299 23.9694 29.8541 23.9926C29.9133 24.0435 29.9723 24.0942 30.0315 24.1452C30.0231 24.1817 30.0231 24.2198 30.0315 24.2564C30.047 24.3181 30.0315 24.4724 30.0315 24.4724C30.0363 24.5257 30.0383 24.5792 30.0377 24.6328C30.0362 24.6853 29.9266 24.9415 29.9157 24.9597C29.9047 24.978 29.7231 25.2205 29.7139 25.2543C29.7045 25.2883 29.5257 25.4657 29.487 25.5042C29.4485 25.5429 29.2465 25.6878 29.2263 25.7063C29.2061 25.7248 28.8948 25.8375 28.8948 25.8375C28.8948 25.8375 28.5432 25.8806 28.5277 25.8806C28.5122 25.8806 28.2187 25.8584 28.2018 25.8511ZM31.8387 29.6392C31.7368 29.9539 31.3466 30.1606 31.3373 30.1744C31.3281 30.188 30.7157 30.4504 30.7019 30.4551C30.688 30.4597 30.1805 30.4551 30.1711 30.4551C30.1617 30.4551 29.3953 30.1651 29.3953 30.1651C29.3953 30.1651 28.942 29.7935 28.9324 29.775C28.9226 29.7565 28.5653 28.9405 28.5653 28.9405C28.628 28.8443 28.6907 28.7482 28.7534 28.652C29.0891 28.4479 29.4249 28.2439 29.7605 28.0398C29.8474 27.9611 29.9343 27.8825 30.0211 27.8038C30.5981 27.7684 31.1749 27.7329 31.7518 27.6974C32.3286 27.6619 31.9446 28.18 31.9968 28.5118C32.0492 28.8435 31.9405 29.3257 31.8387 29.6388V29.6392ZM36.7571 21.2148C36.7109 21.5617 36.5258 21.8379 36.2298 22.0893C35.9338 22.3408 35.3553 22.7124 34.7908 22.808C34.2263 22.9036 33.3886 22.6986 32.6437 22.2759C31.8971 21.8503 31.1013 21.5556 31.0951 21.5293C31.0951 21.5293 29.8612 21.227 29.5466 21.0929C29.232 20.9588 28.8648 20.4435 28.6205 20.0703C28.3761 19.6972 28.4016 19.3962 28.4987 18.9521C28.5959 18.5078 29.2498 17.6998 29.2498 17.6998C29.5048 17.4894 29.7598 17.2792 30.0148 17.0689C30.3315 17.0072 30.6483 16.9454 30.965 16.8837C31.3079 16.8558 31.6508 16.8281 31.9938 16.8004C32.2102 16.8364 32.4266 16.8723 32.6431 16.9083C32.9921 16.9901 33.3413 17.0717 33.6903 17.1535C34.0394 17.2351 34.6358 17.6285 34.6543 17.6348C34.6729 17.6409 35.515 18.2579 35.515 18.2579C35.515 18.2579 35.9591 18.7345 35.9715 18.7653C35.9839 18.7962 36.5376 19.6013 36.5191 19.6214C36.5006 19.6414 36.7751 20.4434 36.7815 20.4758C36.7879 20.5083 36.8018 20.8672 36.7571 21.2142V21.2148Z" fill="#C6CACD"/>
<path fill-rule="evenodd" clip-rule="evenodd" d="M15.8993 6.79788C15.8559 6.86378 15.8125 6.92969 15.7691 6.99561C15.2968 9.83205 14.8245 12.6685 14.3522 15.505C14.5065 15.5299 14.6608 15.5548 14.8152 15.5798C15.0289 15.5911 15.2425 15.6023 15.4562 15.6137C15.8106 15.4643 16.1651 15.3151 16.5195 15.1659C16.8738 15.0168 16.6162 13.0791 17.1047 10.894C17.5933 8.70896 17.8373 7.15382 17.8373 7.15382C17.8373 7.15382 16.8634 6.5665 15.8993 6.79788Z" fill="#C6CACD"/>
<path fill-rule="evenodd" clip-rule="evenodd" d="M13.9662 20.4145L13.6276 20.7773L13.2097 22.3389L14.6237 23.3415L14.9707 22.2299L14.2316 20.3724L13.9662 20.4145Z" fill="#C6CACD"/>
<path fill-rule="evenodd" clip-rule="evenodd" d="M11.7639 31.1614L11.3348 34.4401L11.6531 34.768H12.4193L13.6467 28.7849L12.3037 28.6884L11.7639 31.1614Z" fill="#C6CACD"/>
<path fill-rule="evenodd" clip-rule="evenodd" d="M41.5638 21.2143C41.3452 20.1861 40.8312 19.7233 40.8312 19.7233C40.8312 19.7233 40.1366 18.965 39.5973 18.3609C39.058 17.7567 38.6463 17.0629 38.6463 17.0629C38.6463 17.0629 38.0225 16.2257 37.4543 15.4617C37.4234 15.4983 37.3926 15.535 37.3617 15.5719C34.6497 13.1811 31.732 13.2453 31.732 13.2453C33.5186 14.4151 33.3129 15.9574 33.3129 15.9574C36.2565 17.3969 36.5903 19.2815 36.5903 19.2815C36.5903 19.2815 36.3655 19.2864 36.4939 19.5241C36.6223 19.7617 36.6225 20.3018 36.7638 20.7837C36.9052 21.2659 36.5903 21.2657 36.4873 21.7477C36.3845 22.2299 36.1662 22.0433 35.8771 22.3584C35.5879 22.6735 35.0353 22.6345 34.4245 22.8081C33.814 22.9818 32.4643 22.3068 32.4643 22.3068C33.1069 22.9495 33.236 24.7874 32.3888 25.3305C32.3888 25.3305 32.4033 25.4896 32.4418 25.7208C32.4805 25.9521 32.2346 26.497 32.0715 26.9693C31.9082 27.4416 31.893 27.4609 31.893 27.4609C31.893 27.4609 31.9443 28.29 32.0537 28.8297C32.1629 29.3696 31.9381 29.826 31.9381 29.826C33.3647 32.0496 31.3589 34.3077 31.3589 34.3077C32.8762 33.9567 34.2333 33.4434 35.0614 32.7566C35.0485 32.6794 35.0357 32.6023 35.0227 32.525C35.387 31.5225 35.7512 30.52 36.1154 29.5175C36.3985 29.3461 36.6813 29.1746 36.9644 29.0032C37.2 28.909 37.4355 28.8149 37.6712 28.7206C38.031 28.5964 38.391 28.4721 38.7508 28.3478C39.0456 28.2304 39.3191 28.0654 39.5606 27.8594C39.9465 27.5254 40.0618 27.3193 40.3834 26.6898C40.7048 26.0603 41.0389 25.6358 41.2573 24.9032C41.4758 24.1706 41.4889 23.8877 41.566 23.1808C41.6432 22.4738 41.7823 22.2425 41.5638 21.2143Z" fill="#A1A5A8"/>
<path fill-rule="evenodd" clip-rule="evenodd" d="M15.639 15.379C15.9239 15.2537 16.2087 15.1283 16.4936 15.003C16.5184 14.6806 16.543 14.3582 16.5676 14.0358C16.5784 13.9126 16.589 13.7894 16.5997 13.6663C16.6104 13.5431 16.7862 12.7506 16.7894 12.7377C16.7927 12.7247 17.1108 11.333 17.1108 11.333C17.1471 11.0085 17.1835 10.6839 17.2199 10.3593C17.3195 10.0016 17.4192 9.64385 17.5187 9.2861C17.567 8.91122 17.6152 8.53634 17.6634 8.16145C17.7031 7.8862 17.7427 7.61092 17.7824 7.33565C17.7962 7.20821 17.8102 7.08076 17.8241 6.95332C17.536 6.89013 17.2478 6.82695 16.9597 6.76376C17.3357 7.77603 15.8318 13.8367 15.639 15.379Z" fill="#A1A5A8"/>
<path fill-rule="evenodd" clip-rule="evenodd" d="M14.1543 23.0331L14.5402 23.3609L14.9707 22.2554L14.4951 21.7477L14.1543 23.0331Z" fill="#A1A5A8"/>
<path fill-rule="evenodd" clip-rule="evenodd" d="M13.0458 30.6806L13.6277 28.8428C13.2603 28.8221 12.8929 28.8015 12.5255 28.781C12.8434 29.0618 13.0941 29.6201 13.0458 30.6806Z" fill="#A1A5A8"/>
<path fill-rule="evenodd" clip-rule="evenodd" d="M27.833 24.4919C28.1609 24.2636 28.4889 24.0352 28.817 23.807C30.87 22.621 30.1435 21.8992 29.5081 21.2791C27.8499 18.708 28.8063 18.6308 28.4276 16.8448C27.6811 13.0907 22.926 13.8973 22.926 13.8973C22.2874 14.5348 21.6489 15.1724 21.0103 15.8098C19.8412 16.844 17.9426 19.604 17.2191 21.5321C17.1805 21.8607 17.1421 22.1892 17.1036 22.5177C17.142 23.0503 17.1805 23.583 17.2191 24.1156C17.2804 24.4307 17.3415 24.7459 17.4027 25.0609C17.4638 25.3761 17.8547 26.4769 17.8658 26.5449C17.8769 26.6127 18.1634 27.3068 18.1634 27.3068C18.2313 27.7216 18.2991 28.1365 18.367 28.5515C18.4503 29.1262 18.5335 29.7009 18.6168 30.2758C18.7002 30.8505 18.8868 30.8448 19.543 32.1467C20.1992 33.4485 21.4431 33.689 21.4431 33.689C25.2589 35.0371 29.7813 33.373 29.135 30.1122C29.135 30.1122 29.0377 29.8902 28.7972 29.3303C28.5567 28.7705 28.7108 28.4814 28.7108 28.4814C30.1283 26.9883 28.6815 26.0814 28.6815 26.0814C28.6815 26.0814 28.7355 25.9858 28.4024 25.918C28.0694 25.8503 27.5834 25.4738 27.3474 25.1807C27.1113 24.8874 27.833 24.4919 27.833 24.4919ZM25.8712 22.3957C25.8712 22.4189 25.7075 23.1763 25.7075 23.1763C25.6258 23.4079 25.5441 23.6394 25.4624 23.871C25.3673 24.1793 25.2723 24.4878 25.1771 24.7963C25.1355 25.0375 25.0938 25.2785 25.0521 25.5197C24.9878 25.8181 24.9235 26.1165 24.8593 26.415C24.684 26.7538 24.5087 27.0926 24.3335 27.4315C24.0861 27.6242 23.8388 27.8171 23.5916 28.0098C23.4131 28.0644 23.2347 28.1189 23.0563 28.1735C23.0424 28.1794 22.3823 28.1735 22.3823 28.1735C22.3823 28.1735 21.8857 28.0438 21.8609 28.0298C21.8362 28.016 21.3845 27.7784 21.3845 27.7784C21.203 27.5892 21.0215 27.4001 20.8401 27.2109C20.7145 26.9811 20.589 26.7512 20.4636 26.5216C20.3946 26.3507 20.3258 26.1801 20.2568 26.0094C20.188 25.8386 20.2615 25.1904 20.2568 25.1286C20.2523 25.0669 20.1935 24.0691 20.1935 24.0567C20.1935 24.0443 20.4251 23.1667 20.4342 23.1422C20.4433 23.1176 20.6378 22.3523 20.6378 22.337C20.6378 22.3215 21.1667 21.3546 21.1869 21.3297C21.2073 21.3048 21.9227 20.6744 21.9433 20.6604C21.964 20.6465 23.0044 19.9849 23.0044 19.9849C23.0044 19.9849 23.4285 19.9217 23.4532 19.9169C23.478 19.9121 24.1026 19.9169 24.1026 19.9169C24.3437 19.9812 24.5849 20.0455 24.826 20.1098C24.9838 20.2269 25.1417 20.3443 25.2996 20.4615C25.4471 20.6724 25.5947 20.8834 25.7422 21.0944C25.7937 21.3259 25.8451 21.5574 25.8966 21.789C25.948 22.0205 25.8712 22.3711 25.8712 22.3957Z" fill="#F6FBFD"/>
<path fill-rule="evenodd" clip-rule="evenodd" d="M15.6903 6.92169C15.536 8.08703 15.3817 9.25235 15.2273 10.4177C14.9145 12.2348 14.6018 14.0519 14.289 15.869C13.9763 17.686 14.5299 16.192 14.5444 16.1968C14.559 16.2016 14.8626 16.2257 14.8626 16.2257C15.0505 15.9992 15.2385 15.7728 15.4264 15.5466C15.0573 15.0606 15.6386 13.3486 15.8894 11.8063C16.1405 10.264 16.8149 7.45869 16.3714 6.75497L15.6903 6.92169Z" fill="#F6FBFD"/>
<path fill-rule="evenodd" clip-rule="evenodd" d="M13.4749 20.7372L13.3013 22.2072L13.936 22.6345L14.3022 21.2529L14.1063 20.3225L13.4749 20.7372Z" fill="#F6FBFD"/>
<path fill-rule="evenodd" clip-rule="evenodd" d="M12.2523 29.0163L11.7446 31.2462C11.6761 31.8074 11.6075 32.3687 11.539 32.9299C11.4705 33.4912 11.192 33.5148 11.5004 34.0225C11.8088 34.5301 12.2074 33.5052 12.3423 32.5895C12.4772 31.6736 12.6571 30.0579 12.4001 28.9904L12.2523 29.0163Z" fill="#F6FBFD"/>
<path fill-rule="evenodd" clip-rule="evenodd" d="M23.5083 45.9339C22.265 45.94 21.2579 45.8507 20.587 45.6732C20.6313 46.029 20.6754 46.3849 20.7196 46.7406C20.7212 46.7514 20.7227 46.7622 20.7243 46.773C20.9433 48.1463 21.1623 49.5196 21.3813 50.8927C23.6222 51.1149 25.8448 51.1101 27.9965 50.9297C26.9178 48.4757 25.1494 46.8516 23.5083 45.9339Z" fill="#DF6064"/>
<path fill-rule="evenodd" clip-rule="evenodd" d="M30.1512 28.2136C30.1512 28.2136 29.7379 28.795 29.0252 29.1313C29.8195 30.9653 32.2766 30.1708 31.5549 28.0099C30.9225 28.4202 30.1512 28.2136 30.1512 28.2136Z" fill="#AA282A"/>
<path fill-rule="evenodd" clip-rule="evenodd" d="M15.858 11.8015C15.8488 11.8632 15.838 11.925 15.8256 11.9867C15.9705 12.0068 16.1671 12.0824 16.2874 12.1503C16.3646 11.7678 16.4434 11.3722 16.5189 10.9818C16.3864 10.9295 16.1884 10.882 16.0386 10.8584C15.9739 11.2012 15.9028 11.5222 15.858 11.8015Z" fill="#AA282A"/>
<path fill-rule="evenodd" clip-rule="evenodd" d="M42.7463 45.6705C42.5443 45.072 42.265 44.8607 42.0815 44.3979C41.8982 43.9352 41.4168 43.5791 41.0588 42.9806C40.917 42.7431 40.6717 42.5426 40.3926 42.3477C38.2596 43.2794 35.9089 44.0199 33.5815 44.5813C35.9707 45.482 37.9173 46.8563 39.2403 48.3201C40.6688 47.7602 41.9781 47.1432 43.1395 46.5001C43.0131 46.2193 42.8805 45.9417 42.7463 45.6705Z" fill="#AA282A"/>
<path fill-rule="evenodd" clip-rule="evenodd" d="M46.2166 38.6935C44.7175 40.1372 42.6783 41.3526 40.3926 42.3473C40.6717 42.5417 40.9174 42.7423 41.0588 42.9802C41.4168 43.5787 41.8979 43.9348 42.0815 44.3974C42.2653 44.8601 42.5446 45.0716 42.7463 45.6699C42.8805 45.9416 43.0131 46.2192 43.1395 46.4999C45.012 45.4633 46.4974 44.3575 47.469 43.3086L46.2166 38.6935Z" fill="#771C1C"/>
<path fill-rule="evenodd" clip-rule="evenodd" d="M16.4935 10.9712C16.4178 11.3614 16.3392 11.7532 16.2619 12.1357C16.4306 12.2312 16.5845 12.3508 16.7186 12.4907C16.7987 12.1242 16.8789 11.7576 16.9591 11.3911C16.8884 11.1889 16.7125 11.0578 16.4935 10.9712Z" fill="#771C1C"/>
<path fill-rule="evenodd" clip-rule="evenodd" d="M31.0145 30.4106C31.0145 30.4106 31.5225 30.2574 31.7954 29.8035C32.0684 29.3495 32.0012 29.3181 32.0694 28.9318C32.1376 28.5454 31.7954 28.1646 31.7954 28.1646C30.9376 28.8009 30.5036 29.6684 31.0145 30.4106Z" fill="#771C1C"/>
<path fill-rule="evenodd" clip-rule="evenodd" d="M33.5815 44.5814C29.8335 45.4835 26.1441 45.9218 23.5083 45.9339C25.1494 46.8517 26.9183 48.4757 27.9965 50.9297C32.1208 50.5858 35.9876 49.5987 39.2403 48.3201C37.9172 46.8563 35.9706 45.4821 33.5815 44.5814Z" fill="#D63D3D"/>
<path fill-rule="evenodd" clip-rule="evenodd" d="M15.1546 10.8357L15.0786 11.2784C15.0786 11.6279 15.0786 11.9775 15.0786 12.3271C15.3257 12.0217 15.6034 11.9523 15.8576 11.9909C15.87 11.9291 15.8808 11.8674 15.89 11.8057C15.9347 11.5264 15.9948 11.2037 16.0598 10.8616C15.6883 10.8048 15.3102 10.8233 15.1546 10.8357Z" fill="#D63D3D"/>
<path fill-rule="evenodd" clip-rule="evenodd" d="M29.8094 30.2694C29.8824 30.2694 29.9554 30.2694 30.0282 30.2694C29.906 29.5881 30.5904 28.3285 31.3326 27.9816C30.893 27.9183 30.4534 27.855 30.0138 27.7919C29.5334 28.1968 29.053 28.6015 28.5725 29.0064C28.7771 29.2989 28.9816 29.5913 29.1862 29.8837L29.8094 30.2694Z" fill="#D63D3D"/>
<path fill-rule="evenodd" clip-rule="evenodd" d="M52.4599 31.5298C54.4465 28.9077 53.4438 24.7879 46.2331 25.232C46.2331 25.232 44.9994 22.8428 42.291 22.101C42.2232 20.6234 41.3624 19.5683 40.5526 18.875C39.743 18.1816 39.2493 17.1229 38.8098 16.6941C38.8098 16.6941 39.6394 15.0715 39.4976 13.0911C39.3558 11.1107 38.492 9.96464 37.6531 9.23221C37.8838 9.21215 38.1147 9.19208 38.3455 9.17203C37.3353 7.94118 35.736 6.84125 32.304 7.51701C32.413 7.23526 32.5221 6.95352 32.631 6.67176C30.7323 6.92166 29.3566 8.47773 28.5468 11.4594C26.8117 11.3761 23.0529 12.7379 21.2467 14.5827C20.4061 13.924 18.3809 13.4012 16.8664 13.7745C17.2986 11.5601 17.7308 9.34578 18.163 7.13144C17.7281 6.31242 16.1703 5.78344 15.3914 6.86764C14.8541 10.157 14.3169 13.4464 13.7796 16.7358C13.642 16.92 13.5153 17.1121 13.4002 17.3111C12.7601 18.4186 12.9063 19.506 13.2074 20.2417C13.1246 20.7476 13.0418 21.2535 12.959 21.7592C11.4321 21.0956 8.97202 21.1994 7.7381 23.9788C6.54447 26.6656 8.07768 30.645 11.0281 33.5877C10.9828 33.8656 10.9376 34.1434 10.8924 34.4213C10.9447 34.9825 11.9883 35.6519 12.706 35.0289C12.774 35.0798 12.8434 35.1291 12.9129 35.1786C12.9129 35.1786 10.2692 36.6129 8.79158 38.6053C7.31393 40.5976 7.75044 43.8108 11.6574 44.3382C15.5643 44.8657 19.5497 44.4661 19.5497 44.4661C20.4572 50.0758 21.3646 55.6855 22.272 61.2952C23.1793 66.9048 25.1794 63.3989 30.1535 63.6117C35.1277 63.8246 46.8888 61.8945 51.5157 53.6428L46.2779 36.4553C46.2779 36.4553 50.4748 34.1518 52.4599 31.5298ZM45.5901 26.9334C45.7026 28.4403 44.8928 30.4237 44.856 30.5133C44.8977 30.4655 45.5699 29.6866 45.8924 28.9646C45.8924 28.9646 45.6549 31.7981 42.9556 34.0344C40.2564 36.2707 36.911 35.5585 35.9964 33.3513C35.9964 33.3513 37.9522 34.9892 40.5357 33.5719C40.5357 33.5719 37.6607 33.9837 36.5101 32.4226C35.3856 30.8973 37.0562 29.1349 39.4976 28.6564C41.6832 28.2276 42.2108 26.9983 42.2108 26.9983C42.2108 26.9983 41.1882 27.4101 40.4909 27.5151C40.4909 27.5151 42.0626 25.4205 42.1568 23.2581C44.2743 24.2096 45.4744 25.391 45.5901 26.9334ZM16.0675 7.02756C16.0675 7.02756 16.8278 6.70047 17.503 7.29119C17.0649 9.53589 16.6269 11.7806 16.1888 14.0253C16.0433 14.0993 15.9062 14.1888 15.7801 14.2922C15.897 14.3129 16.0101 14.3519 16.1149 14.4078C16.0856 14.5574 16.0561 14.707 16.0268 14.8566C15.8465 14.9429 15.2649 15.2453 14.6326 15.8098L16.0675 7.02756ZM14.3647 17.4509C14.7009 16.9157 15.1944 16.4098 15.8021 16.0135C16.0256 15.8657 16.2609 15.7365 16.5056 15.6275C17.0567 15.3793 17.6485 15.2341 18.2519 15.1989C18.8553 15.164 17.9373 14.6742 17.6581 14.4726C17.6581 14.4726 19.1388 14.2936 20.5331 15.3857C20.5331 15.3857 19.6956 16.1059 19.3762 17.7055C19.3762 17.7055 21.7362 14.929 24.3704 13.5919C27.0047 12.2547 30.4039 11.9785 33.4314 12.4993C33.4314 12.4993 32.429 11.4103 29.6142 11.4289C29.6142 11.4289 29.9905 9.3466 31.32 8.22844C31.32 8.22844 31.2722 8.64336 31.34 9.02894C31.34 9.02894 33.7277 7.31991 36.3357 8.631C36.3357 8.631 35.8161 8.86855 35.614 9.09978C35.614 9.09978 37.4153 9.80009 38.2128 11.3548C38.9363 12.7691 38.1125 15.1044 37.9554 15.5192C37.9554 15.5192 37.2228 14.5305 36.1122 13.983C37.2997 15.507 37.8921 17.0493 38.8036 18.2323C39.7152 19.4153 41.31 20.1988 41.1696 22.4738C41.0339 24.6547 39.9109 27.0438 39.0704 27.6778C38.0787 27.818 36.0149 28.3472 35.0509 30.5642C34.0869 32.7813 35.4459 34.6803 35.4459 34.6803C35.4459 34.6803 32.8669 35.6242 29.5664 36.5775C26.0357 36.5559 22.3512 36.0681 21.401 36.0207C22.6874 36.7285 24.9947 37.307 25.9648 37.5307C25.0194 37.7558 24.0678 37.9578 23.1455 38.1213C22.1861 38.1677 18.4829 37.4087 15.7713 35.7384C14.8504 35.1708 13.8865 34.5261 12.962 33.7794L13.4917 31.0684C14.9398 32.472 16.8386 33.0642 16.8386 33.0642C16.8386 33.0642 14.579 31.2952 13.683 30.0937C13.7616 29.6901 13.8403 29.2866 13.919 28.883C14.8472 28.6068 15.6664 27.8109 15.7573 26.2126C15.7573 26.2126 16.6489 26.7618 17.4724 26.862C17.6962 27.4177 17.7116 27.9694 17.7409 28.5907C16.8896 28.5876 15.9842 28.381 15.9287 28.3687C15.998 28.4305 17.1377 29.4173 17.835 29.6519C17.9444 30.3675 18.1882 31.1896 18.7912 32.1905C20.3212 34.7219 23.4446 35.7073 26.2718 34.893C26.2718 34.893 21.3408 34.9375 19.601 31.3038C18.219 28.4132 19.2448 28.5166 18.2515 26.2124C17.4 24.2335 17.3907 21.7396 17.5327 20.7662C17.5327 20.7662 16.6766 21.3292 16.591 22.9964C16.591 22.9964 15.8656 22.6569 15.3032 21.7905C15.1128 21.4956 14.9637 21.1758 14.8606 20.8403C14.7124 20.3744 14.6308 19.8207 14.6662 19.1698C14.6662 19.1698 14.3607 19.2671 14.0215 19.5492C13.9983 19.5693 13.9736 19.5909 13.9505 19.6125C13.7262 18.9794 13.8973 18.1882 14.3645 17.4509H14.3647ZM14.9512 23.5987C14.9878 23.4111 15.0242 23.2234 15.0607 23.0358C15.4467 23.5248 15.9677 23.9859 16.6648 24.2852C16.6648 24.2852 16.7805 25.0579 17.0087 25.4883C17.0087 25.4883 16.1573 25.2198 15.5403 24.7711C15.5399 24.7706 15.3564 24.2404 14.9506 23.5987H14.9512ZM13.7682 21.1017C13.7682 21.1017 13.8777 20.9073 14.0151 20.7776C14.0151 20.7776 14.137 21.4876 14.5766 22.297C14.5359 22.5046 14.4954 22.7124 14.4547 22.9201C14.2037 22.62 13.9173 22.3512 13.6018 22.1196L13.7682 21.1017ZM8.63831 28.0786C7.30868 24.4359 9.87208 21.7809 12.0187 22.3594C12.2955 22.4351 12.5611 22.5471 12.8084 22.6926C13.0323 22.8235 13.2417 22.9775 13.4331 23.1523C13.7435 23.4321 14.0093 23.7576 14.2212 24.1177C14.4115 24.4371 14.5554 24.7819 14.6484 25.1418C14.866 25.9908 14.7565 26.874 14.1779 27.5573C13.9771 27.795 13.7251 27.9843 13.4408 28.111C13.16 28.239 12.8669 28.3007 12.5878 28.3239C12.3556 28.3414 12.1222 28.3367 11.8908 28.31C11.4836 28.2638 11.2012 28.1682 11.2012 28.1682C11.3294 28.3825 11.5482 28.5695 11.8259 28.7111C11.6352 29.8766 11.4445 31.0421 11.2537 32.2077C10.1601 31.0485 9.22548 29.6897 8.63785 28.0779L8.63831 28.0786ZM12.4233 33.3289C12.3395 33.7582 12.2558 34.1875 12.172 34.6167C12.172 34.6178 12.172 34.6188 12.172 34.62C11.9559 34.6202 11.7491 34.5322 11.5996 34.3762C11.6115 34.3037 11.6233 34.2313 11.6351 34.1587C11.7087 33.7093 11.7822 33.2599 11.8557 32.8106C12.0667 31.5195 12.2776 30.2286 12.4886 28.9376C12.745 28.9917 13.0074 29.0114 13.269 28.9965L12.4233 33.3289ZM12.2891 43.3096C9.69179 42.9749 8.72769 40.9699 9.94927 38.9523C11.1708 36.9349 13.9532 35.7843 13.9532 35.7843C13.9532 35.7843 14.1831 35.9357 14.5334 36.1548C11.3713 38.1277 12.0223 40.5552 13.3426 41.2754C12.684 39.8287 13.3102 37.8221 15.8432 36.9368C16.2936 37.1928 16.7517 37.435 17.1325 37.597C16.2766 39.963 19.9573 39.7425 25.0066 38.7599C30.0592 37.7773 36.151 35.5009 36.151 35.5009C38.1562 37.2376 41.972 36.6206 44.3628 34.0757C48.046 30.0454 46.6318 26.4085 46.6318 26.4085C48.7911 26.1387 53.2131 26.845 52.1334 29.9299C51.0536 33.0147 43.0727 37.9116 32.6227 40.6884C22.1728 43.4653 14.8845 43.6434 12.2887 43.3087L12.2891 43.3096ZM50.3533 53.5092C49.7807 54.7794 45.8753 58.2041 42.9952 59.5532C43.0569 59.4823 45.0525 57.2103 45.2952 54.363C45.2952 54.363 42.0115 60.0433 37.1329 61.4224C34.318 62.1171 27.8586 63.0714 23.4828 60.7762C22.6855 56.8556 20.7836 45.2492 20.8038 44.2601C21.9746 44.2879 28.602 43.0407 34.9428 41.197C40.6694 41.4052 43.2577 46.8451 43.3398 47.0178C42.5516 42.9664 40.056 40.9163 38.4999 40.0827C41.2097 39.1635 43.64 38.1486 45.2693 37.1013L50.3533 53.5092Z" fill="black"/>
<path fill-rule="evenodd" clip-rule="evenodd" d="M28.2217 29.3057C28.4792 29.8099 29.6746 31.6175 31.4006 30.7184C32.9722 29.9003 32.5296 27.8001 32.2534 27.413C33.2482 26.3904 32.3475 25.2121 32.3475 25.2121C32.2457 27.1402 30.6818 27.4749 29.9784 27.0506C29.9784 27.0506 29.0191 29.1868 26.8413 28.1365C26.8406 28.1365 27.054 29.1868 28.2217 29.3057ZM30.1511 28.2136C30.1511 28.2136 30.9229 28.4202 31.5548 28.0099C32.2764 30.171 29.8194 30.9653 29.0251 29.1313C29.7379 28.795 30.1512 28.2136 30.1512 28.2136H30.1511Z" fill="black"/>
<path fill-rule="evenodd" clip-rule="evenodd" d="M29.013 26.1915C29.4761 26.0821 30.0164 25.6686 30.3934 24.8002C30.7706 23.9318 30.432 23.2965 29.434 23.4369C28.4359 23.5771 26.9334 24.3747 26.963 24.9931C26.9926 25.6115 28.0921 26.4068 29.013 26.1915ZM27.7142 24.9284C28.0475 24.7247 28.4145 24.5073 29.141 24.2928C29.8673 24.0782 30.0216 24.5397 29.5297 25.0888C29.0378 25.6378 28.4747 25.8845 27.7313 25.2955C27.4628 25.0825 27.6356 24.9763 27.7142 24.9284Z" fill="black"/>
<path fill-rule="evenodd" clip-rule="evenodd" d="M31.4222 22.1012C33.1187 22.6796 33.8668 23.8903 35.9212 22.786C37.2709 22.0595 37.752 20.1639 36.1049 18.3793C34.4578 16.5949 31.5514 16.0984 30.0987 16.7229C28.6461 17.3474 28.2386 18.7279 28.2386 18.7279C27.6497 21.0601 29.7255 21.5227 31.4222 22.1012ZM31.4284 17.1269C33.1926 16.9726 34.8353 18.2329 35.1377 18.489C36.7943 19.8971 36.7788 21.5143 35.5448 22.226C34.3109 22.9378 32.4387 21.7988 31.1724 21.2976C29.9969 20.8318 29.1734 20.8025 28.8972 19.7366C28.6212 18.6708 29.6654 17.2812 31.4284 17.1269Z" fill="black"/>
<path fill-rule="evenodd" clip-rule="evenodd" d="M22.5072 28.5451C23.8074 28.6254 24.79 27.8196 25.1694 26.7931C25.5487 25.7664 25.3855 25.0224 25.8757 23.6636C26.366 22.3048 26.7719 20.1948 24.4784 19.6427C22.1108 19.0735 20.1119 21.6122 19.8805 24.299C19.6754 26.8949 20.8362 28.4418 22.5072 28.5451ZM20.6038 23.8064C20.8662 21.2461 23.4773 19.4585 24.9504 20.606C26.3293 21.6795 25.2403 23.1802 24.9504 24.6068C24.6604 26.0336 24.4212 27.8367 22.5597 27.8937C20.6981 27.9509 20.462 25.1889 20.6047 23.807L20.6038 23.8064Z" fill="black"/>
<path fill-rule="evenodd" clip-rule="evenodd" d="M22.7062 25.3787C22.7672 25.4095 22.8306 25.4353 22.8959 25.4559C22.6059 25.0271 22.5563 24.4347 22.8174 23.9122C23.1596 23.2274 23.9169 22.8959 24.5802 23.1096C24.4507 22.9174 24.2737 22.7618 24.0665 22.6577C23.3632 22.3077 22.4887 22.6315 22.1139 23.3831C21.7392 24.1349 22.0027 25.0271 22.7062 25.3787Z" fill="#040002"/>
<path fill-rule="evenodd" clip-rule="evenodd" d="M32.4865 19.1752C33.0693 19.2231 33.5506 19.5716 33.7676 20.0406C33.7836 19.9742 33.7938 19.9067 33.7985 19.8385C33.8618 19.055 33.234 18.3655 32.398 18.2993C31.5621 18.233 30.8309 18.8128 30.7662 19.5959C30.7483 19.8267 30.7902 20.0584 30.8879 20.2683C31.0475 19.5902 31.7229 19.1135 32.4865 19.1752Z" fill="#040002"/>
<path fill-rule="evenodd" clip-rule="evenodd" d="M10.8376 46.5679C10.8376 46.5679 10.3436 48.3478 8.90335 49.5169C10.3441 50.6861 10.8376 52.466 10.8376 52.466C10.8376 52.466 11.3328 50.6861 12.7732 49.5169C11.3328 48.3478 10.8376 46.5679 10.8376 46.5679Z" fill="black"/>
<path fill-rule="evenodd" clip-rule="evenodd" d="M6.51269 33.4317C6.51269 33.4317 6.1268 34.8239 5 35.7385C6.1268 36.6532 6.51269 38.0452 6.51269 38.0452C6.51269 38.0452 6.89996 36.6532 8.02676 35.7385C6.89996 34.8239 6.51269 33.4317 6.51269 33.4317Z" fill="#040002"/>
<path fill-rule="evenodd" clip-rule="evenodd" d="M6.51269 33.4317C6.51269 33.4317 6.1268 34.8239 5 35.7385C6.1268 36.6532 6.51269 38.0452 6.51269 38.0452C6.51269 38.0452 6.89996 36.6532 8.02676 35.7385C6.89996 34.8239 6.51269 33.4317 6.51269 33.4317Z" fill="black"/>
<path fill-rule="evenodd" clip-rule="evenodd" d="M25.9035 5.93919C25.9035 5.93919 26.3601 4.29825 27.6896 3.2199C26.3608 2.14157 25.9043 0.5 25.9043 0.5C25.9043 0.5 25.4484 2.14204 24.1196 3.2199C25.4484 4.29825 25.9035 5.93919 25.9035 5.93919Z" fill="#040002"/>
<path fill-rule="evenodd" clip-rule="evenodd" d="M25.9035 5.93919C25.9035 5.93919 26.3601 4.29825 27.6896 3.2199C26.3608 2.14157 25.9043 0.5 25.9043 0.5C25.9043 0.5 25.4484 2.14204 24.1196 3.2199C25.4484 4.29825 25.9035 5.93919 25.9035 5.93919Z" fill="black"/>
<path fill-rule="evenodd" clip-rule="evenodd" d="M44.9395 17.0389C44.9395 17.0389 45.3529 15.553 46.5555 14.5768C45.3529 13.6007 44.9395 12.1147 44.9395 12.1147C44.9395 12.1147 44.5275 13.6007 43.325 14.5768C44.5275 15.553 44.9395 17.0389 44.9395 17.0389Z" fill="#040002"/>
<path fill-rule="evenodd" clip-rule="evenodd" d="M44.9395 17.0389C44.9395 17.0389 45.3529 15.553 46.5555 14.5768C45.3529 13.6007 44.9395 12.1147 44.9395 12.1147C44.9395 12.1147 44.5275 13.6007 43.325 14.5768C44.5275 15.553 44.9395 17.0389 44.9395 17.0389Z" fill="black"/>
<path fill-rule="evenodd" clip-rule="evenodd" d="M57.0699 28.4569C57.0699 28.4569 56.7789 29.5067 55.9297 30.1953C56.7786 30.8846 57.0699 31.9338 57.0699 31.9338C57.0699 31.9338 57.3616 30.8842 58.2108 30.1953C57.3616 29.5061 57.0699 28.4569 57.0699 28.4569Z" fill="#040002"/>
<path fill-rule="evenodd" clip-rule="evenodd" d="M57.0699 28.4569C57.0699 28.4569 56.7789 29.5067 55.9297 30.1953C56.7786 30.8846 57.0699 31.9338 57.0699 31.9338C57.0699 31.9338 57.3616 30.8842 58.2108 30.1953C57.3616 29.5061 57.0699 28.4569 57.0699 28.4569Z" fill="black"/>
<path fill-rule="evenodd" clip-rule="evenodd" d="M54.1953 33.9595C54.1953 33.9595 53.74 35.601 52.4114 36.6795C53.74 37.7578 54.1953 39.3995 54.1953 39.3995C54.1953 39.3995 54.6517 37.7578 55.9806 36.6795C54.6517 35.601 54.1953 33.9595 54.1953 33.9595Z" fill="black"/>
<path fill-rule="evenodd" clip-rule="evenodd" d="M21.1871 9.31064C21.1871 9.31064 21.5743 7.97192 22.701 7.09239C21.5743 6.21256 21.1871 4.87399 21.1871 4.87399C21.1871 4.87399 20.8011 6.21272 19.6743 7.09239C20.8009 7.97192 21.1871 9.31064 21.1871 9.31064Z" fill="black"/>
</g>
<defs>
<clipPath id="clip0_5302_1470">
<rect width="64" height="64" fill="white" transform="translate(0 0.5)"/>
</clipPath>
</defs>
</svg>
