<svg width="64" height="21" viewBox="0 0 64 21" fill="none" xmlns="http://www.w3.org/2000/svg">
<g clip-path="url(#clip0_5302_1859)">
<path fill-rule="evenodd" clip-rule="evenodd" d="M13.4595 2.91286H15.6758C17.6471 2.91286 19.2476 4.53833 19.2476 6.54048V14.4555C19.2476 16.4576 17.6471 18.0831 15.6758 18.0831H15.5011C14.4865 17.9219 14.0465 17.6129 13.7065 17.3517L10.8887 14.9986C10.8181 14.9406 10.73 14.9089 10.6392 14.9089C10.5484 14.9089 10.4604 14.9406 10.3898 14.9986L9.47434 15.7631L6.89606 13.61C6.82556 13.5519 6.73753 13.5202 6.64674 13.5202C6.55595 13.5202 6.46792 13.5519 6.39742 13.61L2.81553 16.8102C2.09465 17.4057 1.61782 17.2957 1.3086 17.2612C0.50989 16.5955 0 15.5855 0 14.4555V6.54048C0 4.53833 1.60047 2.91286 3.57204 2.91286H5.78344L5.77946 2.9219L5.70491 3.14262L5.6817 3.21833L5.58136 3.67048L5.56753 3.74976L5.52346 4.20262L5.5176 4.3269L5.51666 4.37048L5.52088 4.5781L5.53096 4.69976L5.55581 4.89024L5.58746 5.06167L5.62497 5.21952L5.67373 5.39048L5.80032 5.75238L5.84205 5.86095L6.06242 6.33381L6.14025 6.47905L6.39508 6.92333L6.4926 7.08357L6.84823 7.61548L6.89958 7.68595L7.36234 8.29762L7.51191 8.48595L8.04032 9.11333L8.14886 9.23405L8.58444 9.71L8.75698 9.89143L9.04205 10.179L8.98485 10.2276L8.94922 10.2602C8.8524 10.3519 8.7605 10.4493 8.67446 10.5517C8.63312 10.6012 8.5937 10.6523 8.55631 10.705C8.49927 10.7854 8.44825 10.8701 8.40369 10.9583C8.38092 11.0041 8.36049 11.0511 8.34251 11.099C8.29611 11.2215 8.26821 11.3505 8.25975 11.4814L8.25811 11.5945C8.26216 11.754 8.29415 11.9115 8.35259 12.0595C8.41179 12.2096 8.49814 12.3472 8.60718 12.465C8.68642 12.5507 8.77667 12.6255 8.8756 12.6869C8.95977 12.7393 9.04955 12.7824 9.14286 12.8152C9.34568 12.8851 9.56088 12.9099 9.77395 12.8881H9.77512C9.95691 12.8702 10.1336 12.8169 10.2956 12.7312C10.3654 12.6936 10.432 12.65 10.4944 12.6005C10.6729 12.4593 10.8113 12.2725 10.8952 12.059C10.9609 11.8926 10.993 11.7148 10.9902 11.5357L10.985 11.4421C10.9731 11.3185 10.9441 11.1973 10.8988 11.0819C10.8791 11.0317 10.8568 10.9825 10.8319 10.9348C10.7858 10.8467 10.7333 10.7623 10.6749 10.6821C10.6481 10.6455 10.6205 10.6095 10.5919 10.5743C10.4967 10.4589 10.3943 10.35 10.2852 10.2481L10.2081 10.1814L10.3387 10.0505L10.8999 9.45524L11.094 9.23881L11.3958 8.89405L11.592 8.66095L11.8719 8.31476L12.0613 8.07286L12.3396 7.695L12.48 7.49952L12.6793 7.1969L12.8452 6.93905L13.158 6.38595L13.3369 6.0231L13.342 6.0119L13.4789 5.67524C13.4807 5.67089 13.4823 5.66643 13.4836 5.6619L13.6311 5.19476L13.6465 5.12667L13.7105 4.75476L13.723 4.65405L13.7267 4.59238L13.7312 4.35952L13.73 4.31619L13.7183 4.10762L13.7037 3.94571L13.6311 3.47881C13.6299 3.47262 13.6287 3.46643 13.6268 3.46024L13.5335 3.115L13.5014 3.01905L13.4595 2.91286ZM14.513 12.7831C14.2895 12.7863 14.0761 12.8779 13.9181 13.0384C13.76 13.1989 13.6698 13.4157 13.6667 13.6426C13.67 13.8695 13.7602 14.0862 13.9182 14.2466C14.0762 14.4071 14.2896 14.4986 14.513 14.5019C14.7364 14.4986 14.9498 14.407 15.1078 14.2466C15.2659 14.0862 15.3561 13.8695 15.3595 13.6426C15.3563 13.4156 15.2661 13.1989 15.108 13.0384C14.9499 12.8779 14.7365 12.7863 14.513 12.7831Z" fill="url(#paint0_radial_5302_1859)"/>
<path fill-rule="evenodd" clip-rule="evenodd" d="M44.2723 16.0333L41.6136 10.2526C41.3916 9.77095 41.2594 9.595 41.0374 9.39071L40.821 9.19262C40.6489 9.02286 40.5357 8.86595 40.5357 8.67905C40.5357 8.41167 40.7438 8.1869 41.1236 8.1869H43.4318C43.7943 8.1869 44.0198 8.37833 44.0198 8.66405C44.0198 8.82357 43.9476 8.9431 43.8564 9.06024C43.7481 9.19976 43.6072 9.33571 43.6072 9.58333C43.6072 9.73857 43.6515 9.89333 43.7375 10.091L45.3242 13.8648L46.7474 10.186C46.8349 9.94119 46.8949 9.72571 46.8949 9.55309C46.8949 9.28476 46.7512 9.17524 46.6403 9.05524C46.5439 8.95095 46.4668 8.84071 46.4668 8.66405C46.4668 8.37548 46.698 8.1869 47.009 8.1869H48.4306C48.8292 8.1869 49.0186 8.39619 49.0186 8.66405C49.0186 8.83548 48.9215 8.99405 48.7302 9.16524L48.5291 9.33309C48.2492 9.56548 48.1196 9.90143 47.9728 10.249L45.8172 15.5233C45.5624 16.14 45.1833 16.996 44.604 17.6981C44.0158 18.4114 43.2225 18.9662 42.1479 18.9662C41.2481 18.9662 40.7038 18.53 40.7038 17.9012C40.7038 17.3252 41.1229 16.8664 41.6738 16.8664C41.9758 16.8664 42.1326 17.0112 42.292 17.16C42.4235 17.2829 42.5572 17.4088 42.8204 17.4088C43.0647 17.4088 43.2926 17.3038 43.4987 17.1345C43.8135 16.8757 44.0777 16.4683 44.2723 16.0333ZM7.71633 18.0831H3.57204C2.7465 18.0842 1.94629 17.7937 1.30859 17.2612C1.61781 17.2957 2.09465 17.4057 2.81552 16.8102L6.39741 13.61C6.46792 13.5519 6.55594 13.5202 6.64673 13.5202C6.73752 13.5202 6.82555 13.5519 6.89605 13.61L9.47434 15.7631L10.3898 14.9986C10.4604 14.9406 10.5484 14.9089 10.6392 14.9089C10.73 14.9089 10.8181 14.9406 10.8887 14.9986L13.7065 17.3517C14.0465 17.6129 14.4865 17.9219 15.5011 18.0831H13.6266C13.461 18.081 13.3001 18.0266 13.1664 17.9274L13.1336 17.9017L10.6538 15.8102L8.20653 17.9017C8.06832 18.0172 7.89533 18.0812 7.71633 18.0831ZM59.8958 16.0126C61.0926 16.0126 62.0732 15.5962 62.8381 14.7652C63.6022 13.9352 63.9843 12.9362 63.9843 11.7681C63.9843 10.6283 63.6211 9.69167 62.8972 8.95738C62.1738 8.22381 61.2346 7.85524 60.0791 7.85524C58.8624 7.85524 57.867 8.25643 57.0924 9.05595C56.3172 9.85619 55.9292 10.8255 55.9292 11.964C55.9292 13.0926 56.2991 14.0488 57.0381 14.8336C57.7772 15.6188 58.7295 16.0126 59.8958 16.0126ZM49.7758 15.9221C50.4679 15.9221 50.9602 15.449 50.9602 14.7669C50.9602 14.1007 50.4517 13.6267 49.7758 13.6267C49.0678 13.6267 48.561 14.1014 48.561 14.7669C48.561 15.4483 49.0681 15.9221 49.7758 15.9221ZM52.2399 14.841L52.4083 14.6602C52.6089 14.4624 52.6732 14.2626 52.6732 13.7121V10.4571C52.6732 9.98119 52.6094 9.76881 52.4108 9.58691L52.2125 9.40643C52.0186 9.23262 51.9549 9.12429 51.9549 8.95048C51.9549 8.70333 52.1433 8.50071 52.4467 8.43024L53.7921 8.09881C53.9208 8.06714 54.0657 8.03619 54.1785 8.03619C54.3332 8.03619 54.4598 8.08786 54.5486 8.17762C54.6375 8.26738 54.69 8.3969 54.69 8.55857V13.7121C54.69 14.2319 54.7521 14.4736 54.9657 14.656C54.9691 14.659 54.9724 14.6623 54.9755 14.6657L55.1258 14.8438C55.3147 15.0305 55.3933 15.1543 55.3933 15.3245C55.3933 15.6281 55.1675 15.8017 54.8051 15.8017H52.5276C52.182 15.8017 51.9549 15.629 51.9549 15.3245C51.9549 15.1536 52.0332 15.0286 52.2399 14.841ZM37.0145 14.841L37.1828 14.6602C37.3833 14.4624 37.4477 14.2626 37.4477 13.7121V6.91619C37.4477 6.45524 37.3997 6.22905 37.1873 6.04738L36.984 5.84738C36.8084 5.67452 36.7444 5.56714 36.7444 5.39405C36.7444 5.14667 36.9343 4.94476 37.221 4.87405L38.5512 4.54262C38.6799 4.51095 38.825 4.48 38.9375 4.48C39.0911 4.48 39.2212 4.52714 39.314 4.61619C39.4069 4.70548 39.4646 4.83857 39.4646 5.01738V13.7121C39.4646 14.2331 39.5281 14.461 39.7426 14.6581L39.9142 14.8424C40.1043 15.0302 40.1676 15.1533 40.1676 15.3245C40.1676 15.4505 40.1299 15.5524 40.0624 15.6298C39.9672 15.7393 39.8075 15.8017 39.5949 15.8017H37.3171C37.1045 15.8017 36.9451 15.7393 36.8497 15.6298C36.7824 15.5524 36.7444 15.4505 36.7444 15.3245C36.7444 15.1531 36.807 15.029 37.0145 14.841ZM30.8121 11.3414V13.6819C30.8121 14.0348 30.8808 14.3605 31.1673 14.6286L31.3523 14.8107C31.5593 15.015 31.6223 15.1374 31.6223 15.3245C31.6223 15.6102 31.3966 15.8017 31.0344 15.8017H28.4662C28.104 15.8017 27.8782 15.6102 27.8782 15.3245C27.8782 15.1024 27.9424 14.9971 28.1494 14.8098L28.3339 14.6281C28.5484 14.4305 28.6884 14.1614 28.6884 13.6819V7.42833C28.6884 7.04738 28.6054 6.73595 28.3335 6.4819L28.1483 6.29952C27.9579 6.1119 27.8782 5.98857 27.8782 5.80095C27.8782 5.4981 28.1044 5.30881 28.4662 5.30881H35.3451C35.6081 5.30881 35.8393 5.36809 35.9867 5.51524C36.0894 5.61738 36.1551 5.76143 36.1623 5.96167L36.2695 7.57452C36.2803 7.77619 36.2216 7.94429 36.107 8.04786C36.0282 8.11905 35.922 8.1619 35.7884 8.1619C35.6201 8.1619 35.4909 8.09738 35.3758 7.98595C35.2722 7.88571 35.1798 7.745 35.0757 7.57952C34.8247 7.17167 34.7074 7.025 34.4397 6.83429C34.067 6.555 33.4992 6.45905 32.4255 6.45905C31.8059 6.45905 31.4148 6.48643 31.1687 6.55095C31.0093 6.59262 30.9174 6.6469 30.8682 6.72643C30.8177 6.80786 30.8121 6.91095 30.8121 7.03667V10.206H32.4255C32.8116 10.206 33.0831 10.1352 33.3977 9.69833L33.3993 9.69595C33.5254 9.53286 33.6166 9.41286 33.7034 9.33309C33.8047 9.24024 33.9017 9.19643 34.0306 9.19643C34.2726 9.19643 34.4962 9.39833 34.4962 9.67357V11.8586C34.4962 12.1514 34.2719 12.351 34.0306 12.351C33.9109 12.351 33.8131 12.3076 33.7118 12.2167C33.6246 12.1386 33.5332 12.0221 33.4143 11.866C33.0702 11.4136 32.8271 11.3414 32.4255 11.3414H30.8121ZM58.0684 11.286C58.0684 10.5021 58.2365 9.93881 58.5851 9.6C58.9292 9.26548 59.2994 9.09619 59.697 9.09619C60.2442 9.09619 60.7369 9.40691 61.1814 10.0186C61.636 10.6436 61.8606 11.4886 61.8606 12.5517C61.8606 13.3364 61.6918 13.905 61.3429 14.2536C60.999 14.5976 60.6293 14.7719 60.232 14.7719C59.6848 14.7719 59.1923 14.4586 58.7475 13.8421C58.293 13.2119 58.0684 12.3593 58.0684 11.286ZM14.513 12.7831C14.2895 12.7863 14.0761 12.8779 13.918 13.0384C13.76 13.1989 13.6698 13.4157 13.6667 13.6426C13.67 13.8695 13.7602 14.0862 13.9182 14.2466C14.0762 14.4071 14.2896 14.4986 14.513 14.5019C14.7364 14.4986 14.9498 14.407 15.1078 14.2466C15.2658 14.0862 15.3561 13.8695 15.3595 13.6426C15.3563 13.4156 15.2661 13.1989 15.108 13.0384C14.9499 12.8779 14.7365 12.7863 14.513 12.7831ZM9.04204 10.179L8.75697 9.89143L8.58443 9.71L8.14886 9.23405L8.04032 9.11333L7.5119 8.48595L7.36234 8.29762L6.89957 7.68595L6.84823 7.61548L6.49259 7.08357L6.39507 6.92333L6.14024 6.47905L6.06241 6.33381L5.84204 5.86095L5.80031 5.75238L5.67372 5.39048L5.62496 5.21952L5.58745 5.06167L5.5558 4.89024L5.53095 4.69976L5.52087 4.5781L5.51665 4.37048L5.51759 4.3269L5.52345 4.20262L5.56752 3.74976L5.58136 3.67048L5.68169 3.21833L5.7049 3.14262L5.77945 2.9219L5.80336 2.86476L5.92199 2.6L6.00427 2.44238L6.11891 2.25048L6.23308 2.07952L6.31442 1.97095L6.4082 1.85619L6.51135 1.74095L6.59973 1.65071L6.81494 1.45833L6.97224 1.32762C6.97599 1.32429 6.97998 1.32143 6.98396 1.31857L7.1701 1.19071L7.31803 1.095L7.59888 0.944762C7.6031 0.942143 7.60802 0.94 7.61248 0.937857L8.01078 0.77L8.04758 0.755952L8.40158 0.650714L8.55114 0.616667L8.75322 0.575476L8.88732 0.554762L9.09292 0.52881L9.23311 0.51619L9.51138 0.50119L9.62039 0.5L9.82692 0.504286L9.88061 0.507381L10.1797 0.532619L10.5755 0.589286L10.6212 0.599048L11.0122 0.697857L11.1271 0.732619L11.2546 0.777381L11.41 0.837143L11.5329 0.89L11.7134 0.976429L11.8271 1.03571L12.0315 1.15762L12.1077 1.20524L12.3865 1.4119L12.4664 1.48238L12.6607 1.66214L12.6704 1.6719L12.8352 1.85143L12.8919 1.91643L13.0853 2.17738L13.1247 2.23976L13.2782 2.5031L13.3244 2.59333L13.4109 2.78976L13.5014 3.01905L13.5335 3.115L13.6268 3.46024C13.6286 3.46635 13.63 3.47255 13.6311 3.47881L13.7037 3.94571L13.7183 4.10762L13.73 4.31619L13.7312 4.35952L13.7267 4.59238L13.723 4.65405L13.7105 4.75476L13.6465 5.12667L13.6311 5.19476L13.4836 5.6619C13.4823 5.66643 13.4807 5.67089 13.4789 5.67524L13.342 6.0119L13.3368 6.0231L13.158 6.38595L12.8452 6.93905L12.6793 7.19691L12.48 7.49952L12.3396 7.695L12.0613 8.07286L11.8719 8.31476L11.592 8.66095L11.3957 8.89405L11.094 9.23881L10.8999 9.45524L10.3387 10.0505L10.2081 10.1814L10.2852 10.2481C10.3942 10.35 10.4967 10.4588 10.5919 10.5743C10.6205 10.6095 10.6481 10.6455 10.6749 10.6821C10.7333 10.7623 10.7858 10.8467 10.8319 10.9348C10.8568 10.9824 10.8791 11.0317 10.8987 11.0819C10.9435 11.1971 10.9738 11.319 10.985 11.4421L10.9902 11.5357C10.9931 11.7148 10.9608 11.8927 10.8952 12.059C10.8113 12.2725 10.6729 12.4593 10.4944 12.6005C10.432 12.65 10.3654 12.6936 10.2956 12.7312C10.1336 12.8169 9.9569 12.8702 9.77511 12.8881H9.77394C9.56087 12.9099 9.34567 12.8851 9.14285 12.8152C9.04948 12.7824 8.95987 12.7393 8.8756 12.6869C8.77675 12.6255 8.68647 12.5508 8.60717 12.465C8.49813 12.3472 8.41178 12.2096 8.35258 12.0595C8.29414 11.9115 8.26215 11.754 8.2581 11.5945L8.25974 11.4814C8.2682 11.3505 8.2961 11.2215 8.3425 11.099C8.36055 11.051 8.38094 11.004 8.40368 10.9583C8.44823 10.87 8.49933 10.7855 8.5563 10.705C8.59358 10.6524 8.63319 10.6012 8.67445 10.5517C8.76049 10.4493 8.85239 10.3519 8.94921 10.2602L8.98484 10.2276L9.04204 10.179ZM53.5671 7.04667C54.2605 7.04667 54.7512 6.65048 54.7512 5.96667C54.7512 5.29905 54.261 4.90191 53.5671 4.90191C52.857 4.90191 52.3675 5.29952 52.3675 5.96667C52.3675 6.63381 52.8572 7.04667 53.5671 7.04667Z" fill="#24165B"/>
<path fill-rule="evenodd" clip-rule="evenodd" d="M10.6538 15.8102L13.1336 17.9017C13.2753 18.0188 13.4524 18.0828 13.6351 18.0831H7.7079C7.88982 18.0831 8.06611 18.019 8.20654 17.9017L10.6538 15.8102ZM9.63611 10.8743L9.65861 10.881C9.66588 10.8845 9.67197 10.8898 9.67854 10.8943L9.69729 10.9112C9.74371 10.9545 9.78872 11 9.83209 11.0467C9.86257 11.0798 9.89234 11.1138 9.92094 11.149C9.95728 11.1936 9.99127 11.2402 10.0222 11.2888C10.0356 11.3102 10.048 11.3319 10.0597 11.3545C10.0698 11.374 10.0789 11.3943 10.0869 11.4148C10.101 11.4505 10.1115 11.4881 10.1148 11.5264L10.1141 11.5983C10.1095 11.6632 10.0896 11.7261 10.0563 11.7817C10.023 11.8373 9.97719 11.884 9.92258 11.9181C9.8517 11.9616 9.77203 11.9882 9.68956 11.996L9.60211 11.9986L9.52827 11.9919C9.49374 11.9868 9.45976 11.9784 9.42676 11.9669C9.39317 11.9553 9.36094 11.94 9.33064 11.9212L9.27297 11.8783C9.20506 11.8194 9.15879 11.7388 9.14169 11.6498C9.13883 11.6348 9.13656 11.6197 9.13489 11.6045L9.13278 11.536C9.13395 11.5174 9.13677 11.499 9.14075 11.4807C9.15083 11.4407 9.16537 11.4019 9.18365 11.365C9.20729 11.3187 9.23424 11.2742 9.2643 11.2319C9.31423 11.1633 9.36838 11.0981 9.42629 11.0364C9.46356 10.9964 9.50178 10.9576 9.54163 10.9202L9.57 10.8943C9.58969 10.881 9.58992 10.881 9.61243 10.8743H9.63611ZM9.49099 1.31429L9.50013 1.31357V9.33L9.48044 9.2931C9.22063 8.80492 8.97877 8.30712 8.75534 7.80071C8.57405 7.39087 8.40988 6.97344 8.26327 6.54952C8.14609 6.21183 8.04709 5.86791 7.96671 5.51929C7.90436 5.24238 7.85653 4.96143 7.83684 4.67762C7.8293 4.55651 7.82703 4.43512 7.83004 4.31381C7.83192 4.2081 7.83613 4.10262 7.8427 3.99714C7.85301 3.83119 7.86966 3.66571 7.89357 3.50143C7.91256 3.37214 7.936 3.24333 7.96507 3.11595C7.98805 3.01476 8.01477 2.91429 8.04525 2.81548C8.08932 2.67262 8.14207 2.5331 8.20349 2.39691C8.226 2.34786 8.25014 2.29905 8.27546 2.25119C8.42784 1.96452 8.63461 1.70048 8.90538 1.52381C9.08135 1.40756 9.28213 1.33572 9.49099 1.31429ZM10.5145 1.33452L11.0455 1.48833C11.2914 1.58048 11.5282 1.70071 11.7458 1.85071C12.0423 2.05399 12.2979 2.31291 12.4988 2.61357C12.6167 2.79167 12.7142 2.98381 12.7904 3.18452C12.9008 3.48143 12.9693 3.79262 12.9934 4.10905C13.0004 4.19191 13.0044 4.275 13.0061 4.3581C13.0079 4.43524 13.0075 4.51262 13.0014 4.58976C12.9863 4.7624 12.9543 4.93308 12.906 5.09929C12.8671 5.2353 12.8211 5.36913 12.7684 5.50024C12.7027 5.66333 12.6298 5.82333 12.5499 5.97952C12.3729 6.32667 12.1691 6.65881 11.9511 6.98C11.6809 7.37475 11.3927 7.75659 11.0877 8.12429C10.7564 8.52551 10.411 8.91442 10.052 9.29024C10.2956 8.82632 10.523 8.35381 10.7337 7.87357C10.8509 7.60595 10.9614 7.33548 11.0652 7.06238C11.1794 6.76241 11.2824 6.45814 11.374 6.15024C11.4419 5.91952 11.502 5.68643 11.5514 5.45071C11.5938 5.24857 11.6271 5.04429 11.6478 4.83881C11.6651 4.66738 11.6714 4.495 11.6672 4.3231C11.6656 4.21787 11.6618 4.11268 11.6557 4.00762C11.6309 3.58476 11.5676 3.16333 11.4462 2.75786C11.4002 2.60412 11.3443 2.45364 11.2788 2.30738C11.1233 1.96357 10.9065 1.64214 10.613 1.40762L10.5145 1.33452Z" fill="white"/>
</g>
<defs>
<radialGradient id="paint0_radial_5302_1859" cx="0" cy="0" r="1" gradientUnits="userSpaceOnUse" gradientTransform="translate(9.62368 10.4979) scale(13.1302 14.2771)">
<stop stop-color="#BA7BF0"/>
<stop offset="0.43" stop-color="#996BEC"/>
<stop offset="1" stop-color="#5046E4"/>
</radialGradient>
<clipPath id="clip0_5302_1859">
<rect width="64" height="20" fill="white" transform="translate(0 0.5)"/>
</clipPath>
</defs>
</svg>
