<svg width="64" height="65" viewBox="0 0 64 65" fill="none" xmlns="http://www.w3.org/2000/svg">
<path opacity="0.5" d="M62.4762 61.4524H47.2381C46.3965 61.4524 45.7143 62.1346 45.7143 62.9762C45.7143 63.8178 46.3965 64.5 47.2381 64.5H62.4762C63.3178 64.5 64 63.8178 64 62.9762C64 62.1346 63.3178 61.4524 62.4762 61.4524Z" fill="#4D616E"/>
<path opacity="0.5" d="M41.1429 61.4524H22.8572C22.0156 61.4524 21.3333 62.1346 21.3333 62.9762C21.3333 63.8178 22.0156 64.5 22.8572 64.5H41.1429C41.9844 64.5 42.6667 63.8178 42.6667 62.9762C42.6667 62.1346 41.9844 61.4524 41.1429 61.4524Z" fill="#4D616E"/>
<path d="M16.7619 61.4524H1.52381C0.682233 61.4524 0 62.1346 0 62.9762C0 63.8178 0.682233 64.5 1.52381 64.5H16.7619C17.6035 64.5 18.2857 63.8178 18.2857 62.9762C18.2857 62.1346 17.6035 61.4524 16.7619 61.4524Z" fill="#EA5E5E"/>
<path opacity="0.5" d="M62.4762 55.3571H50.2857C49.4441 55.3571 48.7619 56.0394 48.7619 56.881C48.7619 57.7225 49.4441 58.4048 50.2857 58.4048H62.4762C63.3178 58.4048 64 57.7225 64 56.881C64 56.0394 63.3178 55.3571 62.4762 55.3571Z" fill="#4D616E"/>
<path opacity="0.5" d="M44.1905 55.3571H41.1429C40.3013 55.3571 39.619 56.0394 39.619 56.881C39.619 57.7225 40.3013 58.4048 41.1429 58.4048H44.1905C45.0321 58.4048 45.7143 57.7225 45.7143 56.881C45.7143 56.0394 45.0321 55.3571 44.1905 55.3571Z" fill="#4D616E"/>
<path opacity="0.5" d="M35.0476 55.3571H22.8572C22.0156 55.3571 21.3333 56.0394 21.3333 56.881C21.3333 57.7225 22.0156 58.4048 22.8572 58.4048H35.0476C35.8892 58.4048 36.5714 57.7225 36.5714 56.881C36.5714 56.0394 35.8892 55.3571 35.0476 55.3571Z" fill="#4D616E"/>
<path d="M16.7619 55.3571H13.7143C12.8727 55.3571 12.1905 56.0394 12.1905 56.881C12.1905 57.7225 12.8727 58.4048 13.7143 58.4048H16.7619C17.6035 58.4048 18.2857 57.7225 18.2857 56.881C18.2857 56.0394 17.6035 55.3571 16.7619 55.3571Z" fill="#F7B93E"/>
<path d="M7.61905 55.3571H1.52381C0.682233 55.3571 0 56.0394 0 56.881C0 57.7225 0.682233 58.4048 1.52381 58.4048H7.61905C8.46062 58.4048 9.14286 57.7225 9.14286 56.881C9.14286 56.0394 8.46062 55.3571 7.61905 55.3571Z" fill="#56B3B4"/>
<path opacity="0.5" d="M62.4762 49.2619H35.0476C34.206 49.2619 33.5238 49.9441 33.5238 50.7857C33.5238 51.6273 34.206 52.3095 35.0476 52.3095H62.4762C63.3178 52.3095 64 51.6273 64 50.7857C64 49.9441 63.3178 49.2619 62.4762 49.2619Z" fill="#4D616E"/>
<path opacity="0.5" d="M28.9524 49.2619H22.8572C22.0156 49.2619 21.3333 49.9441 21.3333 50.7857C21.3333 51.6273 22.0156 52.3095 22.8572 52.3095H28.9524C29.794 52.3095 30.4762 51.6273 30.4762 50.7857C30.4762 49.9441 29.794 49.2619 28.9524 49.2619Z" fill="#4D616E"/>
<path d="M16.7619 49.2619H1.52381C0.682233 49.2619 0 49.9441 0 50.7857C0 51.6273 0.682233 52.3095 1.52381 52.3095H16.7619C17.6035 52.3095 18.2857 51.6273 18.2857 50.7857C18.2857 49.9441 17.6035 49.2619 16.7619 49.2619Z" fill="#BF85BF"/>
<path opacity="0.5" d="M62.4762 43.1667H56.381C55.5394 43.1667 54.8571 43.8489 54.8571 44.6905C54.8571 45.532 55.5394 46.2143 56.381 46.2143H62.4762C63.3178 46.2143 64 45.532 64 44.6905C64 43.8489 63.3178 43.1667 62.4762 43.1667Z" fill="#4D616E"/>
<path opacity="0.5" d="M50.2857 43.1667H44.1905C43.3489 43.1667 42.6667 43.8489 42.6667 44.6905C42.6667 45.532 43.3489 46.2143 44.1905 46.2143H50.2857C51.1273 46.2143 51.8095 45.532 51.8095 44.6905C51.8095 43.8489 51.1273 43.1667 50.2857 43.1667Z" fill="#4D616E"/>
<path d="M38.0952 43.1667H10.6667C9.82509 43.1667 9.14285 43.8489 9.14285 44.6905C9.14285 45.532 9.82509 46.2143 10.6667 46.2143H38.0952C38.9368 46.2143 39.619 45.532 39.619 44.6905C39.619 43.8489 38.9368 43.1667 38.0952 43.1667Z" fill="#F7B93E"/>
<path d="M4.57143 43.1667H1.52381C0.682233 43.1667 0 43.8489 0 44.6905C0 45.532 0.682233 46.2143 1.52381 46.2143H4.57143C5.41301 46.2143 6.09524 45.532 6.09524 44.6905C6.09524 43.8489 5.41301 43.1667 4.57143 43.1667Z" fill="#BF85BF"/>
<path opacity="0.5" d="M62.4762 37.0714H53.3333C52.4917 37.0714 51.8095 37.7537 51.8095 38.5953C51.8095 39.4368 52.4917 40.1191 53.3333 40.1191H62.4762C63.3178 40.1191 64 39.4368 64 38.5953C64 37.7537 63.3178 37.0714 62.4762 37.0714Z" fill="#4D616E"/>
<path d="M47.2381 37.0714H38.0953C37.2537 37.0714 36.5714 37.7537 36.5714 38.5953C36.5714 39.4368 37.2537 40.1191 38.0953 40.1191H47.2381C48.0797 40.1191 48.7619 39.4368 48.7619 38.5953C48.7619 37.7537 48.0797 37.0714 47.2381 37.0714Z" fill="#BF85BF"/>
<path d="M32 37.0714H19.8095C18.9679 37.0714 18.2857 37.7537 18.2857 38.5953C18.2857 39.4368 18.9679 40.1191 19.8095 40.1191H32C32.8416 40.1191 33.5238 39.4368 33.5238 38.5953C33.5238 37.7537 32.8416 37.0714 32 37.0714Z" fill="#EA5E5E"/>
<path d="M13.7143 37.0714H1.52381C0.682233 37.0714 0 37.7537 0 38.5953C0 39.4368 0.682233 40.1191 1.52381 40.1191H13.7143C14.5559 40.1191 15.2381 39.4368 15.2381 38.5953C15.2381 37.7537 14.5559 37.0714 13.7143 37.0714Z" fill="#56B3B4"/>
<path opacity="0.5" d="M62.4762 30.9762H56.381C55.5394 30.9762 54.8571 31.6584 54.8571 32.5C54.8571 33.3416 55.5394 34.0238 56.381 34.0238H62.4762C63.3178 34.0238 64 33.3416 64 32.5C64 31.6584 63.3178 30.9762 62.4762 30.9762Z" fill="#4D616E"/>
<path d="M50.2857 30.9762H25.9048C25.0632 30.9762 24.381 31.6584 24.381 32.5C24.381 33.3416 25.0632 34.0238 25.9048 34.0238H50.2857C51.1273 34.0238 51.8095 33.3416 51.8095 32.5C51.8095 31.6584 51.1273 30.9762 50.2857 30.9762Z" fill="#56B3B4"/>
<path d="M19.8095 30.9762H10.6667C9.82509 30.9762 9.14285 31.6584 9.14285 32.5C9.14285 33.3416 9.82509 34.0238 10.6667 34.0238H19.8095C20.6511 34.0238 21.3333 33.3416 21.3333 32.5C21.3333 31.6584 20.6511 30.9762 19.8095 30.9762Z" fill="#F7B93E"/>
<path d="M4.57143 30.9762H1.52381C0.682233 30.9762 0 31.6584 0 32.5C0 33.3416 0.682233 34.0238 1.52381 34.0238H4.57143C5.41301 34.0238 6.09524 33.3416 6.09524 32.5C6.09524 31.6584 5.41301 30.9762 4.57143 30.9762Z" fill="#EA5E5E"/>
<path opacity="0.5" d="M62.4762 24.881H59.4286C58.587 24.881 57.9048 25.5632 57.9048 26.4048C57.9048 27.2463 58.587 27.9286 59.4286 27.9286H62.4762C63.3178 27.9286 64 27.2463 64 26.4048C64 25.5632 63.3178 24.881 62.4762 24.881Z" fill="#4D616E"/>
<path d="M53.3333 24.881H38.0953C37.2537 24.881 36.5714 25.5632 36.5714 26.4048C36.5714 27.2463 37.2537 27.9286 38.0953 27.9286H53.3333C54.1749 27.9286 54.8572 27.2463 54.8572 26.4048C54.8572 25.5632 54.1749 24.881 53.3333 24.881Z" fill="#F7B93E"/>
<path opacity="0.5" d="M32 24.881H22.8572C22.0156 24.881 21.3333 25.5632 21.3333 26.4048C21.3333 27.2463 22.0156 27.9286 22.8572 27.9286H32C32.8416 27.9286 33.5238 27.2463 33.5238 26.4048C33.5238 25.5632 32.8416 24.881 32 24.881Z" fill="#4D616E"/>
<path d="M16.7619 24.881H1.52381C0.682233 24.881 0 25.5632 0 26.4048C0 27.2463 0.682233 27.9286 1.52381 27.9286H16.7619C17.6035 27.9286 18.2857 27.2463 18.2857 26.4048C18.2857 25.5632 17.6035 24.881 16.7619 24.881Z" fill="#BF85BF"/>
<path opacity="0.5" d="M62.4762 18.7857H59.4286C58.587 18.7857 57.9048 19.4679 57.9048 20.3095C57.9048 21.1511 58.587 21.8333 59.4286 21.8333H62.4762C63.3178 21.8333 64 21.1511 64 20.3095C64 19.4679 63.3178 18.7857 62.4762 18.7857Z" fill="#4D616E"/>
<path d="M53.3333 18.7857H38.0953C37.2537 18.7857 36.5714 19.4679 36.5714 20.3095C36.5714 21.1511 37.2537 21.8333 38.0953 21.8333H53.3333C54.1749 21.8333 54.8572 21.1511 54.8572 20.3095C54.8572 19.4679 54.1749 18.7857 53.3333 18.7857Z" fill="#EA5E5E"/>
<path opacity="0.5" d="M32 18.7857H22.8572C22.0156 18.7857 21.3333 19.4679 21.3333 20.3095C21.3333 21.1511 22.0156 21.8333 22.8572 21.8333H32C32.8416 21.8333 33.5238 21.1511 33.5238 20.3095C33.5238 19.4679 32.8416 18.7857 32 18.7857Z" fill="#4D616E"/>
<path d="M16.7619 18.7857H13.7143C12.8727 18.7857 12.1905 19.4679 12.1905 20.3095C12.1905 21.1511 12.8727 21.8333 13.7143 21.8333H16.7619C17.6035 21.8333 18.2857 21.1511 18.2857 20.3095C18.2857 19.4679 17.6035 18.7857 16.7619 18.7857Z" fill="#56B3B4"/>
<path d="M7.61905 18.7857H1.52381C0.682233 18.7857 0 19.4679 0 20.3095C0 21.1511 0.682233 21.8333 1.52381 21.8333H7.61905C8.46062 21.8333 9.14286 21.1511 9.14286 20.3095C9.14286 19.4679 8.46062 18.7857 7.61905 18.7857Z" fill="#F7B93E"/>
<path opacity="0.5" d="M62.4762 12.6905H56.381C55.5394 12.6905 54.8571 13.3727 54.8571 14.2143C54.8571 15.0559 55.5394 15.7381 56.381 15.7381H62.4762C63.3178 15.7381 64 15.0559 64 14.2143C64 13.3727 63.3178 12.6905 62.4762 12.6905Z" fill="#4D616E"/>
<path d="M50.2857 12.6905H47.2381C46.3965 12.6905 45.7143 13.3727 45.7143 14.2143C45.7143 15.0559 46.3965 15.7381 47.2381 15.7381H50.2857C51.1273 15.7381 51.8095 15.0559 51.8095 14.2143C51.8095 13.3727 51.1273 12.6905 50.2857 12.6905Z" fill="#56B3B4"/>
<path d="M41.1428 12.6905H28.9524C28.1108 12.6905 27.4286 13.3727 27.4286 14.2143C27.4286 15.0559 28.1108 15.7381 28.9524 15.7381H41.1428C41.9844 15.7381 42.6667 15.0559 42.6667 14.2143C42.6667 13.3727 41.9844 12.6905 41.1428 12.6905Z" fill="#BF85BF"/>
<path d="M22.8571 12.6905H1.52381C0.682233 12.6905 0 13.3727 0 14.2143C0 15.0559 0.682233 15.7381 1.52381 15.7381H22.8571C23.6987 15.7381 24.381 15.0559 24.381 14.2143C24.381 13.3727 23.6987 12.6905 22.8571 12.6905Z" fill="#56B3B4"/>
<path opacity="0.5" d="M62.4762 6.59525H53.3333C52.4917 6.59525 51.8095 7.27748 51.8095 8.11905C51.8095 8.96063 52.4917 9.64286 53.3333 9.64286H62.4762C63.3178 9.64286 64 8.96063 64 8.11905C64 7.27748 63.3178 6.59525 62.4762 6.59525Z" fill="#4D616E"/>
<path d="M47.2381 6.59525H16.7619C15.9203 6.59525 15.2381 7.27748 15.2381 8.11905C15.2381 8.96063 15.9203 9.64286 16.7619 9.64286H47.2381C48.0797 9.64286 48.7619 8.96063 48.7619 8.11905C48.7619 7.27748 48.0797 6.59525 47.2381 6.59525Z" fill="#F7B93E"/>
<path d="M10.6667 6.59525H1.52381C0.682233 6.59525 0 7.27748 0 8.11905C0 8.96063 0.682233 9.64286 1.52381 9.64286H10.6667C11.5082 9.64286 12.1905 8.96063 12.1905 8.11905C12.1905 7.27748 11.5082 6.59525 10.6667 6.59525Z" fill="#EA5E5E"/>
<path opacity="0.5" d="M62.4762 0.5H44.1905C43.3489 0.5 42.6667 1.18223 42.6667 2.02381C42.6667 2.86539 43.3489 3.54762 44.1905 3.54762H62.4762C63.3178 3.54762 64 2.86539 64 2.02381C64 1.18223 63.3178 0.5 62.4762 0.5Z" fill="#4D616E"/>
<path d="M38.0952 0.5H1.52381C0.682233 0.5 0 1.18223 0 2.02381C0 2.86539 0.682233 3.54762 1.52381 3.54762H38.0952C38.9368 3.54762 39.619 2.86539 39.619 2.02381C39.619 1.18223 38.9368 0.5 38.0952 0.5Z" fill="#56B3B4"/>
</svg>
