<svg width="64" height="22" viewBox="0 0 64 22" fill="none" xmlns="http://www.w3.org/2000/svg">
<path fill-rule="evenodd" clip-rule="evenodd" d="M0.150373 13.8078C-0.053012 14.148 -0.0498643 14.5772 0.158487 14.9143L3.92959 21.0141C4.17434 21.41 4.6461 21.5906 5.08395 21.4558L15.9664 18.1082C16.5604 17.9255 16.8592 17.2462 16.5996 16.6688L9.60377 1.10796C9.26259 0.349099 8.23411 0.286808 7.80818 0.999213L0.150373 13.8078ZM9.41788 4.66532C9.2692 4.31254 8.7657 4.36687 8.6919 4.74368L5.99855 18.4948C5.94176 18.7847 6.20651 19.0324 6.48287 18.9478L14.0018 16.6464C14.2213 16.5791 14.3343 16.3306 14.2434 16.115L9.41788 4.66532Z" fill="#5A67D8"/>
<path fill-rule="evenodd" clip-rule="evenodd" d="M23.2133 10.9599H23.8762C24.4956 10.9599 24.9588 10.8345 25.2666 10.5835C25.5742 10.3325 25.728 9.96713 25.728 9.48746C25.728 9.00354 25.599 8.64596 25.3413 8.41493C25.0834 8.18391 24.6797 8.0684 24.1295 8.0684H23.2133V10.9599ZM27.7616 9.41426C27.7616 10.4626 27.4423 11.2641 26.803 11.8193C26.1643 12.3747 25.2558 12.6521 24.0776 12.6521H23.2135V16.1167H21.1993V6.37619H24.2335C25.3859 6.37619 26.2619 6.63051 26.8618 7.13888C27.4618 7.64751 27.7616 8.40597 27.7616 9.41426Z" fill="#5A67D8"/>
<path fill-rule="evenodd" clip-rule="evenodd" d="M33.1008 8.52811C33.3695 8.52811 33.5925 8.5481 33.7701 8.5881L33.6208 10.4934C33.4603 10.4492 33.2656 10.4268 33.0359 10.4268C32.4033 10.4268 31.9108 10.5934 31.5575 10.9265C31.2045 11.2596 31.0282 11.7261 31.0282 12.3258V16.1167H29.0463V8.66808H30.5473L30.8399 9.92057H30.9372C31.1624 9.50324 31.4667 9.16658 31.8502 8.91109C32.2334 8.65586 32.6502 8.52811 33.1008 8.52811Z" fill="#5A67D8"/>
<path fill-rule="evenodd" clip-rule="evenodd" d="M34.8214 16.1167H36.8033V8.66811H34.8214V16.1167ZM34.7372 6.74254C34.7372 6.08076 35.0968 5.75 35.8158 5.75C36.5346 5.75 36.8943 6.08076 36.8943 6.74254C36.8943 7.05801 36.8044 7.30337 36.6248 7.47888C36.4449 7.65438 36.1752 7.74189 35.8158 7.74189C35.0968 7.74189 34.7372 7.40877 34.7372 6.74254Z" fill="#5A67D8"/>
<path fill-rule="evenodd" clip-rule="evenodd" d="M43.7803 13.9047C43.7803 14.6688 43.5214 15.2506 43.0036 15.6503C42.486 16.05 41.7116 16.25 40.6808 16.25C40.1523 16.25 39.7022 16.2132 39.3296 16.1399C38.9569 16.0667 38.6082 15.9589 38.2834 15.8169V14.1378C38.6516 14.3157 39.0662 14.4644 39.5278 14.5844C39.9889 14.7041 40.3949 14.7641 40.7458 14.7641C41.4649 14.7641 41.8246 14.551 41.8246 14.1247C41.8246 13.9647 41.7769 13.8348 41.6816 13.7349C41.5862 13.6349 41.4217 13.5217 41.1877 13.3949C40.9539 13.2684 40.6418 13.1208 40.252 12.9519C39.6934 12.7122 39.2828 12.4901 39.0209 12.2857C38.7587 12.0815 38.5681 11.8472 38.4492 11.5828C38.3299 11.3186 38.2703 10.9932 38.2703 10.6067C38.2703 9.94493 38.5203 9.43324 39.0209 9.0712C39.5211 8.70913 40.2303 8.52823 41.1487 8.52823C42.0237 8.52823 42.8749 8.72372 43.7022 9.11448L43.1046 10.5801C42.7406 10.4201 42.4004 10.2893 42.0843 10.187C41.7681 10.0849 41.4454 10.0339 41.1163 10.0339C40.5315 10.0339 40.2389 10.1959 40.2389 10.5201C40.2389 10.7024 40.3335 10.8601 40.5217 10.9932C40.7103 11.1264 41.1227 11.3242 41.7594 11.5863C42.327 11.8218 42.743 12.0415 43.007 12.2457C43.2711 12.4501 43.4661 12.6854 43.5918 12.9519C43.7175 13.2185 43.7803 13.5361 43.7803 13.9047Z" fill="#5A67D8"/>
<path fill-rule="evenodd" clip-rule="evenodd" d="M51.6309 16.1167H49.6491V11.7661C49.6491 11.2288 49.5613 10.8256 49.3862 10.5569C49.2105 10.2883 48.9344 10.1537 48.5575 10.1537C48.0509 10.1537 47.6827 10.3447 47.453 10.7268C47.2233 11.1088 47.1087 11.7372 47.1087 12.6123V16.1167H45.1268V8.66808H46.6409L46.9073 9.62086H47.0178C47.2127 9.2788 47.4944 9.01108 47.8623 8.81794C48.2305 8.62479 48.6529 8.52811 49.1295 8.52811C50.2167 8.52811 50.953 8.89251 51.3387 9.62086H51.5139C51.7089 9.27434 51.996 9.00567 52.375 8.81464C52.7539 8.62363 53.1816 8.52811 53.6582 8.52811C54.4811 8.52811 55.104 8.74477 55.5261 9.17765C55.9485 9.61074 56.1596 10.3047 56.1596 11.2596V16.1167H54.1715V11.7661C54.1715 11.2288 54.0836 10.8256 53.9085 10.5569C53.7327 10.2883 53.4568 10.1537 53.0798 10.1537C52.5948 10.1537 52.2321 10.3316 51.9913 10.6868C51.7511 11.0423 51.6309 11.6062 51.6309 12.379V16.1167Z" fill="#5A67D8"/>
<path fill-rule="evenodd" clip-rule="evenodd" d="M61.9267 12.6655L61.16 12.6921C60.5838 12.71 60.155 12.8166 59.8736 13.0121C59.5918 13.2076 59.4512 13.5049 59.4512 13.9049C59.4512 14.4777 59.7716 14.7642 60.4126 14.7642C60.8717 14.7642 61.239 14.6287 61.514 14.3577C61.789 14.0869 61.9267 13.7272 61.9267 13.2784V12.6655ZM62.5114 16.1167L62.1281 15.1039H62.076C61.7424 15.535 61.3992 15.8335 61.046 16C60.6932 16.1666 60.233 16.2499 59.6656 16.2499C58.9679 16.2499 58.4191 16.0457 58.0183 15.6371C57.6178 15.2284 57.4174 14.6466 57.4174 13.8914C57.4174 13.101 57.687 12.518 58.2262 12.1426C58.7658 11.7673 59.5789 11.5596 60.6662 11.5196L61.9265 11.4796V11.1531C61.9265 10.3981 61.5497 10.0206 60.796 10.0206C60.2155 10.0206 59.5332 10.2003 58.7493 10.5602L58.0931 9.18777C58.9291 8.73915 59.8562 8.51471 60.874 8.51471C61.8486 8.51471 62.5958 8.73256 63.1158 9.16778C63.6353 9.60299 63.8953 10.2648 63.8953 11.1531V16.1167H62.5114Z" fill="#5A67D8"/>
</svg>
