<svg width="61" height="17" viewBox="0 0 61 17" fill="none" xmlns="http://www.w3.org/2000/svg">
<mask id="mask0_5302_972" style="mask-type:luminance" maskUnits="userSpaceOnUse" x="0" y="0" width="17" height="17">
<path d="M12.3379 0.5H4.11263C1.84129 0.5 0 2.34129 0 4.61263V12.8379C0 15.1092 1.84129 16.9505 4.11263 16.9505H12.3379C14.6092 16.9505 16.4505 15.1092 16.4505 12.8379V4.61263C16.4505 2.34129 14.6092 0.5 12.3379 0.5Z" fill="white"/>
</mask>
<g mask="url(#mask0_5302_972)">
<path fill-rule="evenodd" clip-rule="evenodd" d="M12.5722 13.0873C12.9722 12.6874 13.0476 12.1464 13.0034 11.6791C12.9588 11.2059 12.785 10.692 12.5382 10.1794C12.3158 9.71751 12.0192 9.2262 11.6604 8.72523C12.0192 8.22426 12.3158 7.73296 12.5382 7.27106C12.785 6.75847 12.9588 6.2446 13.0034 5.77134C13.0476 5.30408 12.9722 4.76309 12.5722 4.36314C12.1722 3.96318 11.6313 3.88778 11.164 3.93189C10.6908 3.97655 10.1769 4.15038 9.66431 4.39718C9.20235 4.61958 8.71105 4.9161 8.21013 5.27496C7.70916 4.9161 7.21786 4.61958 6.75591 4.39718C6.24332 4.15038 5.72945 3.97655 5.25624 3.93189C4.78896 3.88778 4.24797 3.96318 3.84801 4.36314C3.44806 4.76309 3.37266 5.30408 3.41676 5.77134C3.46144 6.2446 3.63526 6.75847 3.88206 7.27106C4.10447 7.73296 4.40098 8.22426 4.75984 8.72523C4.40098 9.2262 4.10447 9.71751 3.88206 10.1794C3.63526 10.692 3.46144 11.2059 3.41676 11.6791C3.37266 12.1464 3.44806 12.6874 3.84801 13.0873C4.24797 13.4873 4.78896 13.5627 5.25624 13.5186C5.72945 13.4739 6.24332 13.3001 6.75591 13.0533C7.21786 12.8309 7.70916 12.5343 8.21013 12.1755C8.71105 12.5343 9.20235 12.8309 9.66431 13.0533C10.1769 13.3001 10.6908 13.4739 11.164 13.5186C11.6313 13.5627 12.1722 13.4873 12.5722 13.0873ZM8.21013 11.2689C8.65702 10.9195 9.11152 10.518 9.55722 10.0724C10.0029 9.62667 10.4044 9.17212 10.7538 8.72523C10.4044 8.27835 10.0029 7.8238 9.55722 7.37809C9.11152 6.93244 8.65702 6.53094 8.21013 6.18157C7.76319 6.53094 7.3087 6.93244 6.86299 7.37809C6.41728 7.8238 6.01579 8.27835 5.66642 8.72523C6.01579 9.17212 6.41728 9.62667 6.86299 10.0724C7.3087 10.518 7.76319 10.9195 8.21013 11.2689ZM8.81633 11.7143C9.23695 11.3757 9.65875 10.9972 10.0704 10.5855C10.482 10.1739 10.8606 9.75205 11.1992 9.33143C12.1933 10.7774 12.5757 12.0574 12.059 12.5741C11.5423 13.0909 10.2623 12.7084 8.81633 11.7143ZM5.22097 9.33143C5.55965 9.75205 5.93816 10.1739 6.34979 10.5855C6.76146 10.9972 7.18326 11.3757 7.60393 11.7143C6.15793 12.7084 4.87793 13.0909 4.3612 12.5741C3.84447 12.0574 4.22694 10.7774 5.22097 9.33143ZM5.22097 8.11903C5.55965 7.69841 5.93816 7.27656 6.34979 6.86494C6.76146 6.45327 7.18326 6.07475 7.60393 5.73613C6.15793 4.74206 4.87793 4.35959 4.3612 4.87632C3.84447 5.39306 4.22694 6.67308 5.22097 8.11903ZM8.81633 5.73613C9.23695 6.07475 9.65875 6.45327 10.0704 6.86494C10.482 7.27656 10.8606 7.69841 11.1992 8.11903C12.1933 6.67308 12.5757 5.39306 12.059 4.87632C11.5423 4.35959 10.2623 4.74206 8.81633 5.73613Z" fill="black" stroke="black" stroke-width="0.5"/>
</g>
<path d="M18.5068 11.9002V7.56553H19.5021L19.5185 8.94737L19.3787 8.63481C19.439 8.41546 19.5432 8.21805 19.6912 8.04259C19.8393 7.86714 20.0093 7.73003 20.2012 7.63133C20.3986 7.52713 20.6042 7.47505 20.8181 7.47505C20.9113 7.47505 20.9991 7.48328 21.0813 7.49973C21.1691 7.51618 21.2403 7.53535 21.2952 7.5573L21.0237 8.66771C20.9634 8.63481 20.8894 8.60741 20.8017 8.58546C20.7139 8.56351 20.6262 8.55256 20.5384 8.55256C20.4013 8.55256 20.2697 8.57996 20.1436 8.63481C20.023 8.68416 19.916 8.75547 19.8228 8.84867C19.7296 8.94187 19.6556 9.05158 19.6008 9.17768C19.5514 9.29833 19.5267 9.43539 19.5267 9.58894V11.9002H18.5068Z" fill="black"/>
<path d="M23.5998 11.9824C23.1447 11.9824 22.7416 11.8865 22.3907 11.6945C22.0452 11.5026 21.7738 11.2422 21.5764 10.9131C21.3845 10.5786 21.2885 10.1975 21.2885 9.76984C21.2885 9.42988 21.3433 9.12004 21.453 8.84038C21.5626 8.56073 21.7135 8.31947 21.9054 8.11656C22.1028 7.90821 22.3358 7.74915 22.6045 7.6395C22.8787 7.52434 23.1776 7.46677 23.5011 7.46677C23.7862 7.46677 24.0522 7.52162 24.2989 7.63127C24.5457 7.74092 24.7595 7.89175 24.9405 8.08366C25.1214 8.27012 25.2586 8.49492 25.3518 8.75813C25.4505 9.01584 25.4971 9.29827 25.4916 9.60533L25.4834 9.95902H21.9712L21.782 9.2681H24.6362L24.5046 9.40793V9.22697C24.4881 9.05696 24.4333 8.90891 24.3401 8.78281C24.2468 8.6512 24.1262 8.54978 23.9781 8.47847C23.8356 8.40172 23.6765 8.36332 23.5011 8.36332C23.2324 8.36332 23.0048 8.4154 22.8184 8.5196C22.6374 8.6238 22.5003 8.77458 22.4071 8.97199C22.3139 9.16389 22.2673 9.4052 22.2673 9.69581C22.2673 9.97547 22.3249 10.2195 22.44 10.4279C22.5607 10.6362 22.7279 10.798 22.9418 10.9131C23.1611 11.0228 23.4161 11.0777 23.7067 11.0777C23.9096 11.0777 24.096 11.0448 24.266 10.9789C24.436 10.9131 24.6197 10.7953 24.8171 10.6253L25.3189 11.3244C25.1708 11.4615 25.0008 11.5794 24.8089 11.6781C24.6224 11.7713 24.425 11.8453 24.2167 11.9002C24.0083 11.955 23.8027 11.9824 23.5998 11.9824Z" fill="black"/>
<path d="M27.8085 11.9825C27.4521 11.9825 27.1286 11.8838 26.838 11.6864C26.5474 11.489 26.3143 11.2203 26.1388 10.8803C25.9634 10.5403 25.8756 10.1538 25.8756 9.72055C25.8756 9.28733 25.9634 8.90075 26.1388 8.56079C26.3143 8.22083 26.5528 7.95484 26.8544 7.76294C27.156 7.57103 27.496 7.47505 27.8743 7.47505C28.0937 7.47505 28.2938 7.50795 28.4748 7.57376C28.6557 7.63406 28.8147 7.72181 28.9519 7.83696C29.089 7.95212 29.2013 8.08372 29.2891 8.23178C29.3823 8.37983 29.4454 8.53883 29.4783 8.70884L29.2562 8.65126V7.56553H30.2761V11.9002H29.248V10.8639L29.4865 10.8227C29.4481 10.9708 29.3768 11.1161 29.2726 11.2587C29.1739 11.3958 29.0478 11.5192 28.8943 11.6288C28.7462 11.733 28.579 11.818 28.3925 11.8838C28.2116 11.9496 28.0169 11.9825 27.8085 11.9825ZM28.0882 11.0859C28.324 11.0859 28.5324 11.0284 28.7133 10.9132C28.8943 10.7981 29.0341 10.639 29.1328 10.4361C29.237 10.2278 29.2891 9.98925 29.2891 9.72055C29.2891 9.45734 29.237 9.22431 29.1328 9.0214C29.0341 8.81849 28.8943 8.65949 28.7133 8.54433C28.5324 8.42918 28.324 8.3716 28.0882 8.3716C27.8524 8.3716 27.644 8.42918 27.4631 8.54433C27.2876 8.65949 27.1505 8.81849 27.0518 9.0214C26.9531 9.22431 26.9038 9.45734 26.9038 9.72055C26.9038 9.98925 26.9531 10.2278 27.0518 10.4361C27.1505 10.639 27.2876 10.7981 27.4631 10.9132C27.644 11.0284 27.8524 11.0859 28.0882 11.0859Z" fill="black"/>
<path d="M33.092 11.9825C32.6863 11.9825 32.3216 11.8838 31.9981 11.6864C31.6746 11.489 31.4196 11.2203 31.2331 10.8803C31.0467 10.5403 30.9535 10.1565 30.9535 9.72877C30.9535 9.30106 31.0467 8.9172 31.2331 8.57724C31.4196 8.23728 31.6746 7.96857 31.9981 7.77116C32.3216 7.57376 32.6863 7.47505 33.092 7.47505C33.4814 7.47505 33.8351 7.54908 34.1531 7.69713C34.4711 7.84519 34.7179 8.05082 34.8934 8.31403L34.334 8.9885C34.2518 8.87334 34.1476 8.76914 34.0215 8.67594C33.8954 8.58274 33.761 8.50871 33.6184 8.45386C33.4759 8.399 33.3333 8.3716 33.1907 8.3716C32.9495 8.3716 32.7329 8.43191 32.5409 8.55256C32.3545 8.66771 32.2065 8.82949 32.0968 9.03785C31.9871 9.24076 31.9323 9.47106 31.9323 9.72877C31.9323 9.98648 31.9871 10.2168 32.0968 10.4197C32.2119 10.6226 32.3655 10.7843 32.5574 10.905C32.7493 11.0256 32.9632 11.0859 33.199 11.0859C33.3416 11.0859 33.4786 11.064 33.6102 11.0201C33.7473 10.9708 33.8762 10.9023 33.9968 10.8145C34.1175 10.7268 34.2299 10.6171 34.334 10.4855L34.8934 11.1682C34.707 11.4094 34.4492 11.6069 34.1202 11.7604C33.7967 11.9085 33.4539 11.9825 33.092 11.9825Z" fill="black"/>
<path d="M35.92 11.9002V6.4633H36.9317V11.9002H35.92ZM35.0646 8.50316V7.56549H37.8776V8.50316H35.0646Z" fill="black"/>
<path d="M42.6657 11.9824C42.2106 11.9824 41.8075 11.8865 41.4566 11.6945C41.1111 11.5026 40.8397 11.2422 40.6423 10.9131C40.4504 10.5786 40.3544 10.1975 40.3544 9.76984C40.3544 9.42988 40.4092 9.12004 40.5189 8.84038C40.6285 8.56073 40.7794 8.31947 40.9713 8.11656C41.1687 7.90821 41.4017 7.74915 41.6704 7.6395C41.9446 7.52434 42.2435 7.46677 42.567 7.46677C42.8521 7.46677 43.1181 7.52162 43.3648 7.63127C43.6116 7.74092 43.8254 7.89175 44.0064 8.08366C44.1873 8.27012 44.3244 8.49492 44.4176 8.75813C44.5163 9.01584 44.563 9.29827 44.5575 9.60533L44.5493 9.95902H41.0371L40.8479 9.2681H43.702L43.5704 9.40793V9.22697C43.554 9.05696 43.4991 8.90891 43.4059 8.78281C43.3127 8.6512 43.1921 8.54978 43.044 8.47847C42.9015 8.40172 42.7424 8.36332 42.567 8.36332C42.2983 8.36332 42.0707 8.4154 41.8843 8.5196C41.7033 8.6238 41.5662 8.77458 41.473 8.97199C41.3798 9.16389 41.3332 9.4052 41.3332 9.69581C41.3332 9.97547 41.3908 10.2195 41.5059 10.4279C41.6266 10.6362 41.7938 10.798 42.0076 10.9131C42.227 11.0228 42.482 11.0777 42.7726 11.0777C42.9755 11.0777 43.1619 11.0448 43.3319 10.9789C43.5019 10.9131 43.6856 10.7953 43.883 10.6253L44.3847 11.3244C44.2367 11.4615 44.0667 11.5794 43.8748 11.6781C43.6883 11.7713 43.4909 11.8453 43.2826 11.9002C43.0742 11.955 42.8686 11.9824 42.6657 11.9824Z" fill="black"/>
<path d="M45.2211 11.9002V7.56553H46.2164L46.2328 8.4374L46.0683 8.50321C46.1177 8.36065 46.1917 8.22905 46.2904 8.10839C46.3891 7.98229 46.507 7.87536 46.6441 7.78761C46.7812 7.69441 46.9265 7.6231 47.08 7.57375C47.2336 7.5189 47.3899 7.4915 47.5489 7.4915C47.7847 7.4915 47.993 7.5299 48.174 7.60665C48.3605 7.67796 48.514 7.79311 48.6346 7.95211C48.7607 8.11112 48.854 8.31403 48.9143 8.56078L48.758 8.52788L48.8238 8.39628C48.8841 8.26467 48.9691 8.1468 49.0788 8.04259C49.1884 7.93294 49.3118 7.83696 49.4489 7.75471C49.586 7.66696 49.7286 7.60115 49.8766 7.5573C50.0302 7.51345 50.181 7.4915 50.329 7.4915C50.658 7.4915 50.9322 7.5573 51.1515 7.68891C51.3709 7.82051 51.5353 8.02064 51.6453 8.28935C51.7548 8.55806 51.8098 8.88979 51.8098 9.28461V11.9002H50.7896V9.35041C50.7896 9.13105 50.7594 8.95009 50.6991 8.80754C50.6443 8.66499 50.5566 8.56078 50.4359 8.49498C50.3208 8.42368 50.1755 8.38805 50 8.38805C49.8629 8.38805 49.7313 8.41273 49.6052 8.46208C49.4845 8.50593 49.3804 8.57173 49.2926 8.65949C49.2049 8.74174 49.1363 8.83772 49.087 8.94737C49.0376 9.05702 49.013 9.17768 49.013 9.30928V11.9002H47.993V9.34218C47.993 9.13383 47.9629 8.9611 47.9026 8.82399C47.8423 8.68144 47.7545 8.57451 47.6394 8.50321C47.5242 8.42645 47.3844 8.38805 47.2199 8.38805C47.0828 8.38805 46.9539 8.41273 46.8333 8.46208C46.7126 8.50593 46.6085 8.56901 46.5207 8.65126C46.433 8.73351 46.3644 8.82949 46.3151 8.93915C46.2657 9.0488 46.2411 9.16945 46.2411 9.30106V11.9002H45.2211Z" fill="black"/>
<path d="M54.3535 11.9825C53.9972 11.9825 53.6739 11.8838 53.3829 11.6864C53.0924 11.489 52.8596 11.2203 52.6837 10.8803C52.5084 10.5403 52.4205 10.1538 52.4205 9.72055C52.4205 9.28733 52.5084 8.90075 52.6837 8.56079C52.8596 8.22083 53.0981 7.95484 53.3993 7.76294C53.7011 7.57103 54.0409 7.47505 54.4193 7.47505C54.6388 7.47505 54.8388 7.50795 55.0197 7.57376C55.2007 7.63406 55.36 7.72181 55.4968 7.83696C55.634 7.95212 55.7466 8.08372 55.834 8.23178C55.9276 8.37983 55.9903 8.53883 56.0232 8.70884L55.8011 8.65126V7.56553H56.821V11.9002H55.7929V10.8639L56.0314 10.8227C55.9934 10.9708 55.9219 11.1161 55.8176 11.2587C55.7189 11.3958 55.5929 11.5192 55.4392 11.6288C55.2911 11.733 55.1241 11.818 54.9375 11.8838C54.7565 11.9496 54.5622 11.9825 54.3535 11.9825ZM54.6331 11.0859C54.8691 11.0859 55.0773 11.0284 55.2582 10.9132C55.4392 10.7981 55.579 10.639 55.6777 10.4361C55.7821 10.2278 55.834 9.98925 55.834 9.72055C55.834 9.45734 55.7821 9.22431 55.6777 9.0214C55.579 8.81849 55.4392 8.65949 55.2582 8.54433C55.0773 8.42918 54.8691 8.3716 54.6331 8.3716C54.3977 8.3716 54.189 8.42918 54.008 8.54433C53.8327 8.65949 53.6954 8.81849 53.5967 9.0214C53.498 9.22431 53.4487 9.45734 53.4487 9.72055C53.4487 9.98925 53.498 10.2278 53.5967 10.4361C53.6954 10.639 53.8327 10.7981 54.008 10.9132C54.189 11.0284 54.3977 11.0859 54.6331 11.0859Z" fill="black"/>
<path d="M57.8934 11.9002V7.56549H58.9051V11.9002H57.8934ZM58.3869 6.64426C58.1839 6.64426 58.025 6.59491 57.9099 6.4962C57.8004 6.392 57.7454 6.24672 57.7454 6.06027C57.7454 5.88481 57.8029 5.74221 57.9181 5.63255C58.0332 5.52289 58.1895 5.46805 58.3869 5.46805C58.5951 5.46805 58.7545 5.52015 58.864 5.62433C58.9791 5.72303 59.0367 5.86836 59.0367 6.06027C59.0367 6.23027 58.9791 6.3701 58.864 6.47975C58.7488 6.58941 58.59 6.64426 58.3869 6.64426Z" fill="black"/>
<path d="M59.9801 11.9002V5.81349H61V11.9002H59.9801Z" fill="black"/>
</svg>
