<svg width="64" height="65" viewBox="0 0 64 65" fill="none" xmlns="http://www.w3.org/2000/svg">
<path d="M0 40.273V26.2985H6.1887C7.05379 26.2985 7.83902 26.4982 8.5444 26.8974C9.24974 27.2834 9.80214 27.8091 10.2014 28.4746C10.614 29.14 10.8203 29.8986 10.8203 30.7504C10.8203 31.5889 10.614 32.3542 10.2014 33.0462C9.80214 33.725 9.24974 34.264 8.5444 34.6633C7.83902 35.0625 7.05379 35.2622 6.1887 35.2622H2.89472V40.273H0ZM7.92553 40.273L4.37202 33.9645L7.44641 33.4655L11.3992 40.293L7.92553 40.273ZM2.89472 32.8266H6.04896C6.4083 32.8266 6.72106 32.7468 6.98725 32.5871C7.26674 32.414 7.47968 32.1811 7.62608 31.8883C7.77247 31.5822 7.84568 31.2429 7.84568 30.8702C7.84568 30.4709 7.75917 30.1249 7.58615 29.8321C7.41314 29.5393 7.16026 29.313 6.82754 29.1533C6.49481 28.9803 6.10885 28.8938 5.66965 28.8938H2.89472V32.8266Z" fill="black"/>
<path d="M17.2019 40.4726C16.0573 40.4726 15.0524 40.2398 14.1873 39.7739C13.3356 39.3081 12.6702 38.6692 12.191 37.8574C11.7252 37.0456 11.4922 36.1139 11.4922 35.0625C11.4922 34.2374 11.6254 33.4854 11.8915 32.8066C12.1577 32.1279 12.5304 31.5423 13.0095 31.0499C13.4886 30.5441 14.0543 30.1582 14.7065 29.892C15.3719 29.6125 16.0906 29.4727 16.8625 29.4727C17.5812 29.4727 18.2466 29.6058 18.8589 29.872C19.4711 30.1382 19.9968 30.5108 20.436 30.99C20.8885 31.4558 21.2346 32.0148 21.4741 32.6669C21.7137 33.3057 21.8201 33.9978 21.7935 34.7431L21.7736 35.6215H13.2891L12.8298 33.8847H19.4378L19.1184 34.244V33.8048C19.0918 33.4455 18.972 33.1261 18.759 32.8466C18.5594 32.5538 18.2999 32.3275 17.9805 32.1678C17.6611 31.9948 17.3016 31.9083 16.9024 31.9083C16.3168 31.9083 15.8178 32.0214 15.4051 32.2477C15.0058 32.4739 14.6998 32.8066 14.4868 33.2458C14.2739 33.685 14.1674 34.2174 14.1674 34.8429C14.1674 35.4818 14.3005 36.034 14.5667 36.4999C14.8462 36.9657 15.2321 37.3317 15.7246 37.5979C16.2303 37.8507 16.8225 37.9772 17.5013 37.9772C17.9671 37.9772 18.3931 37.904 18.779 37.7576C19.1649 37.6112 19.5775 37.3583 20.0168 36.999L21.3743 38.8955C20.9883 39.2416 20.5624 39.5344 20.0966 39.7739C19.6308 40.0002 19.1517 40.1732 18.6592 40.293C18.1668 40.4128 17.6811 40.4726 17.2019 40.4726Z" fill="black"/>
<path d="M26.4438 40.4727C25.4589 40.4727 24.5805 40.313 23.8086 39.9935C23.05 39.6608 22.4378 39.2083 21.9719 38.636L23.7487 37.1188C24.148 37.558 24.6004 37.8774 25.1062 38.077C25.612 38.2634 26.1177 38.3565 26.6234 38.3565C26.8231 38.3565 27.0027 38.3366 27.1624 38.2966C27.3354 38.2434 27.4819 38.1769 27.6016 38.097C27.7214 38.0039 27.808 37.8974 27.8612 37.7776C27.9277 37.6445 27.961 37.5048 27.961 37.3584C27.961 37.0656 27.8412 36.8393 27.6016 36.6796C27.4686 36.5997 27.2623 36.5132 26.9828 36.4201C26.7033 36.3136 26.3439 36.2005 25.9047 36.0807C25.226 35.9077 24.647 35.7081 24.1679 35.4818C23.7021 35.2422 23.3294 34.9761 23.05 34.6832C22.8104 34.4038 22.624 34.1043 22.491 33.7849C22.3712 33.4522 22.3113 33.0862 22.3113 32.6869C22.3113 32.2078 22.4178 31.7752 22.6307 31.3893C22.8436 30.99 23.1365 30.6506 23.5091 30.3711C23.8951 30.0916 24.3343 29.8787 24.8267 29.7323C25.3191 29.5726 25.8382 29.4927 26.3839 29.4927C26.9296 29.4927 27.4619 29.5593 27.981 29.6924C28.5 29.8255 28.9791 30.0184 29.4183 30.2713C29.8708 30.5109 30.2635 30.797 30.5962 31.1297L29.0789 32.8067C28.8394 32.5804 28.5666 32.3741 28.2604 32.1878C27.9677 32.0015 27.6615 31.8551 27.3421 31.7486C27.0227 31.6421 26.7365 31.5889 26.4837 31.5889C26.2574 31.5889 26.0512 31.6089 25.8648 31.6488C25.6918 31.6887 25.5454 31.7553 25.4256 31.8484C25.3058 31.9283 25.2127 32.0281 25.1461 32.1479C25.0929 32.2677 25.0663 32.4007 25.0663 32.5471C25.0663 32.6935 25.0995 32.8333 25.1661 32.9664C25.2459 33.0995 25.3525 33.2126 25.4855 33.3058C25.6319 33.3856 25.8449 33.4788 26.1243 33.5852C26.4171 33.6917 26.8098 33.8115 27.3022 33.9446C27.941 34.1176 28.48 34.3106 28.9192 34.5235C29.3717 34.7365 29.7311 34.9827 29.9973 35.2622C30.2236 35.5017 30.3899 35.7745 30.4964 36.0807C30.6029 36.3868 30.6561 36.7262 30.6561 37.0988C30.6561 37.7509 30.4697 38.3299 30.0971 38.8357C29.7377 39.3414 29.2387 39.7407 28.5998 40.0335C27.961 40.3262 27.2423 40.4727 26.4438 40.4727Z" fill="black"/>
<path d="M36.6897 40.4726C35.5451 40.4726 34.5404 40.2398 33.6752 39.7739C32.8235 39.3081 32.158 38.6692 31.6789 37.8574C31.213 37.0456 30.9802 36.1139 30.9802 35.0625C30.9802 34.2374 31.1132 33.4854 31.3794 32.8066C31.6457 32.1279 32.0183 31.5423 32.4974 31.0499C32.9765 30.5441 33.5422 30.1582 34.1943 29.892C34.8598 29.6125 35.5785 29.4727 36.3504 29.4727C37.069 29.4727 37.7345 29.6058 38.3467 29.872C38.9589 30.1382 39.4846 30.5108 39.9238 30.99C40.3763 31.4558 40.7224 32.0148 40.9619 32.6669C41.2015 33.3057 41.308 33.9978 41.2814 34.7431L41.2614 35.6215H32.7769L32.3177 33.8847H38.9257L38.6062 34.244V33.8048C38.5796 33.4455 38.4598 33.1261 38.2469 32.8466C38.0473 32.5538 37.7877 32.3275 37.4683 32.1678C37.1489 31.9948 36.7896 31.9083 36.3903 31.9083C35.8047 31.9083 35.3056 32.0214 34.893 32.2477C34.4937 32.4739 34.1876 32.8066 33.9747 33.2458C33.7618 33.685 33.6553 34.2174 33.6553 34.8429C33.6553 35.4818 33.7883 36.034 34.0545 36.4999C34.334 36.9657 34.72 37.3317 35.2124 37.5979C35.7182 37.8507 36.3104 37.9772 36.9892 37.9772C37.455 37.9772 37.8809 37.904 38.2669 37.7576C38.6529 37.6112 39.0654 37.3583 39.5046 36.999L40.8621 38.8955C40.4761 39.2416 40.0503 39.5344 39.5845 39.7739C39.1186 40.0002 38.6395 40.1732 38.1471 40.293C37.6547 40.4128 37.1689 40.4726 36.6897 40.4726Z" fill="black"/>
<path d="M42.3781 40.273V29.7123H45.0931L45.173 31.8684L44.614 32.1079C44.7604 31.6288 45.02 31.1963 45.3926 30.8103C45.7786 30.411 46.2377 30.0916 46.7701 29.8521C47.3025 29.6125 47.8615 29.4927 48.447 29.4927C49.2455 29.4927 49.911 29.6524 50.4434 29.9718C50.9891 30.2913 51.395 30.777 51.6611 31.4292C51.9406 32.068 52.0804 32.8599 52.0804 33.8048V40.273H49.2455V34.0244C49.2455 33.5453 49.1791 33.1461 49.0459 32.8266C48.9129 32.5072 48.7065 32.2743 48.427 32.1279C48.1609 31.9815 47.8281 31.915 47.4289 31.9283C47.1094 31.9283 46.81 31.9815 46.5305 32.088C46.2644 32.1811 46.0314 32.3209 45.8318 32.5072C45.6455 32.6935 45.4924 32.9065 45.3726 33.1461C45.2662 33.3856 45.2129 33.6451 45.2129 33.9246V40.273H43.8155C43.5094 40.273 43.2365 40.273 42.997 40.273C42.7574 40.273 42.5512 40.273 42.3781 40.273Z" fill="black"/>
<path d="M57.9311 40.4727C56.9995 40.4727 56.1677 40.2398 55.4357 39.7739C54.717 39.2948 54.1447 38.6493 53.7188 37.8375C53.3062 37.0123 53.0999 36.0607 53.0999 34.9827C53.0999 33.9313 53.3062 32.993 53.7188 32.1678C54.1447 31.3294 54.717 30.6772 55.4357 30.2114C56.1677 29.7323 56.9995 29.4927 57.9311 29.4927C58.4236 29.4927 58.896 29.5726 59.3485 29.7323C59.8144 29.8787 60.2269 30.085 60.5862 30.3511C60.959 30.6173 61.2584 30.9168 61.4846 31.2495C61.7109 31.5689 61.8374 31.9017 61.8639 32.2477L61.1452 32.3874V25.5H64V40.273H61.3049L61.1852 37.8375L61.7441 37.8974C61.7176 38.23 61.5978 38.5495 61.3848 38.8556C61.1719 39.1617 60.8857 39.4412 60.5264 39.6941C60.1804 39.9336 59.7811 40.1266 59.3285 40.273C58.8893 40.4061 58.4236 40.4727 57.9311 40.4727ZM58.5699 38.117C59.1024 38.117 59.5681 37.9839 59.9674 37.7177C60.3666 37.4515 60.6795 37.0855 60.9057 36.6197C61.132 36.1538 61.245 35.6082 61.245 34.9827C61.245 34.3705 61.132 33.8315 60.9057 33.3656C60.6795 32.8998 60.3666 32.5338 59.9674 32.2676C59.5681 32.0015 59.1024 31.8684 58.5699 31.8684C58.0376 31.8684 57.5718 32.0015 57.1725 32.2676C56.7866 32.5338 56.4804 32.8998 56.2542 33.3656C56.0412 33.8315 55.9347 34.3705 55.9347 34.9827C55.9347 35.6082 56.0412 36.1538 56.2542 36.6197C56.4804 37.0855 56.7866 37.4515 57.1725 37.7177C57.5718 37.9839 58.0376 38.117 58.5699 38.117Z" fill="black"/>
</svg>
