<svg width="64" height="29" viewBox="0 0 64 29" fill="none" xmlns="http://www.w3.org/2000/svg">
<path d="M23.979 14.312C23.1382 14.312 22.4545 14.5609 21.9304 15.0585C21.4062 15.5565 21.1403 16.2092 21.1403 17.009C21.1403 17.4236 21.2064 17.8015 21.3365 18.1478C21.4666 18.4948 21.669 18.8163 21.9412 19.1067C22.2135 19.3975 22.7583 19.7924 23.5704 20.2945C24.5668 20.9028 25.2189 21.3965 25.5318 21.782C25.845 22.1671 26.0004 22.5707 26.0004 22.9915C26.0004 23.555 25.8149 24.0047 25.4338 24.3428C25.0519 24.681 24.5413 24.8495 23.9082 24.8495C23.2404 24.8495 22.6587 24.6141 22.1592 24.1466C21.6597 23.6785 21.4075 23.0593 21.4018 22.2832H21.0913V25.1001H21.4018C21.4966 24.8334 21.6278 24.6969 21.7996 24.6969C21.8822 24.6969 22.0757 24.7539 22.3771 24.8604C23.1105 25.1213 23.7127 25.2472 24.186 25.2472C25.0018 25.2472 25.6981 24.9615 26.2783 24.3809C26.8576 23.8006 27.15 23.1005 27.15 22.2832C27.15 21.6495 26.957 21.0857 26.578 20.5942C26.199 20.1021 25.4619 19.5298 24.3604 18.8724C23.4126 18.303 22.7973 17.8392 22.5133 17.4776C22.2289 17.1166 22.0829 16.7172 22.0829 16.2789C22.0829 15.8049 22.257 15.4242 22.6005 15.1402C22.944 14.856 23.394 14.7152 23.9572 14.7152C24.591 14.7152 25.1193 14.9033 25.5373 15.2819C25.9549 15.6611 26.1963 16.1866 26.2674 16.8619H26.578V14.421H26.2892C26.2539 14.5454 26.2212 14.625 26.1911 14.6607C26.1619 14.6963 26.1057 14.7152 26.0222 14.7152C25.9217 14.7152 25.7426 14.6729 25.4882 14.5899C24.9434 14.4064 24.441 14.312 23.979 14.312ZM34.1296 14.312C33.1051 14.312 32.1749 14.5535 31.3345 15.0367C30.4928 15.519 29.8266 16.1887 29.3349 17.0417C28.8435 17.8947 28.5994 18.8006 28.5994 19.766C28.5994 21.063 29.0239 22.2185 29.8798 23.2313C30.7361 24.2434 31.7621 24.8741 32.9527 25.1165C33.2249 25.2583 33.6144 25.6244 34.1242 26.2171C34.6987 26.8859 35.1847 27.3682 35.5844 27.6555C35.9836 27.9429 36.4147 28.1535 36.8702 28.293C37.3262 28.4318 37.8191 28.5 38.3522 28.5C38.9978 28.5 39.5758 28.3878 40.0849 28.1567L39.9704 27.8734C39.6749 27.98 39.3598 28.0314 39.0278 28.0314C38.5774 28.0314 38.1221 27.8829 37.6657 27.5846C37.21 27.2857 36.6401 26.7153 35.9603 25.8738C35.6408 25.4706 35.4203 25.2162 35.2956 25.1165C36.5982 24.8621 37.6694 24.2307 38.5048 23.2204C39.3399 22.2104 39.7579 21.0578 39.7579 19.766C39.7579 18.2322 39.2122 16.9431 38.1288 15.8921C37.0446 14.841 35.7112 14.312 34.1296 14.312ZM40.4663 14.312L40.4826 14.6444C41.1648 14.6444 41.5468 14.8453 41.6322 15.2492C41.6641 15.3937 41.6787 15.6605 41.6813 16.0447L41.6758 23.3947C41.6702 23.9437 41.5919 24.2942 41.4415 24.4463C41.2909 24.5973 41.0364 24.6919 40.6679 24.7296L40.6515 25.062H47.4513L47.6256 23.3947H47.3151C47.2264 23.8489 47.023 24.1743 46.6994 24.3591C46.3749 24.5453 45.801 24.637 44.9722 24.637H44.3293C43.5835 24.637 43.152 24.3674 43.038 23.8252C43.0144 23.7179 43.0064 23.6029 43.0053 23.4765L43.0325 16.0447C43.0324 15.4966 43.1016 15.1293 43.245 14.9495C43.39 14.7704 43.6513 14.6701 44.0296 14.6444L44.0133 14.312H40.4663ZM34.2386 14.7152C35.3941 14.7152 36.3376 15.1703 37.0664 16.0882C37.795 17.0065 38.1561 18.265 38.1561 19.8586C38.1561 21.3687 37.7897 22.5779 37.0555 23.4874C36.3212 24.3966 35.344 24.8495 34.1296 24.8495C32.963 24.8495 32.0169 24.3824 31.2909 23.4438C30.5656 22.5051 30.2067 21.2864 30.2067 19.7878C30.2067 18.2478 30.57 17.0151 31.3018 16.0937C32.0332 15.1733 33.0127 14.7152 34.2386 14.7152ZM49.8759 16.2953C49.71 16.2953 49.5836 16.3513 49.489 16.4642C49.3923 16.5766 49.3626 16.7129 49.3964 16.8783C49.4291 17.0388 49.5195 17.1794 49.6634 17.2978C49.8064 17.4161 49.9607 17.4776 50.1265 17.4776C50.2869 17.4776 50.4092 17.4161 50.497 17.2978C50.5848 17.1794 50.6116 17.0388 50.5787 16.8783C50.545 16.7129 50.4576 16.5766 50.3227 16.4642C50.1862 16.3513 50.0363 16.2953 49.8759 16.2953ZM54.36 17.4231C54.0782 18.5072 53.4673 19.0939 52.5293 19.1885L52.5402 19.499H53.6354L53.6136 23.1713C53.6153 23.7992 53.6345 24.2172 53.679 24.4299C53.7868 24.9393 54.1194 25.1982 54.676 25.1982C55.4813 25.1982 56.3261 24.7076 57.2096 23.7271L56.9426 23.4982C56.3047 24.144 55.7407 24.4681 55.2481 24.4681C54.9454 24.4681 54.7578 24.294 54.6869 23.9505C54.6675 23.867 54.6597 23.7696 54.6597 23.6563L54.6706 19.499H56.3433L56.3269 19.0032H54.676V17.4231H54.36ZM60.8274 18.8071C59.8918 18.8071 59.1308 19.2613 58.539 20.1637C57.9504 21.0678 57.7682 22.0694 57.9996 23.1713C58.1358 23.8168 58.4072 24.3171 58.8224 24.6697C59.2369 25.0221 59.7628 25.1982 60.3915 25.1982C60.9769 25.1982 61.792 25.05 62.1351 24.7514C62.479 24.453 62.7959 23.9696 63.0886 23.3075L62.8543 23.0624C62.3874 23.9213 61.4453 24.3537 60.7348 24.3537C59.758 24.3537 59.1597 23.8177 58.9368 22.7518C58.9078 22.6157 58.8862 22.4696 58.8714 22.3159C60.0335 22.1319 60.9142 21.8061 61.5085 21.3352C62.1024 20.864 62.6987 20.3645 62.5873 19.8368C62.521 19.5233 62.3582 19.2767 62.1078 19.0904C61.8541 18.9041 61.1955 18.8071 60.8274 18.8071ZM50.6005 18.8452L48.5846 19.3083V19.6679L49.282 19.5808C49.6198 19.5808 49.8186 19.7337 49.8813 20.0384C49.9025 20.1404 49.9158 20.2836 49.9195 20.4634L49.8977 23.7598C49.892 24.2159 49.8414 24.4811 49.7397 24.5607C49.637 24.6405 49.3663 24.6806 48.9278 24.6806L48.9169 24.9911H52.1152L52.1098 24.6806C51.6654 24.6806 51.3773 24.6455 51.2489 24.5771C51.1227 24.509 51.0358 24.3852 50.9983 24.1957C50.9693 24.059 50.9567 23.8236 50.9547 23.4982L50.9656 18.8452H50.6005ZM60.3153 19.4554C60.5099 19.4554 60.698 19.5306 60.8874 19.6788C61.0741 19.8265 61.1879 19.9908 61.2252 20.1692C61.4076 21.0456 60.6306 21.6514 58.8823 21.989C58.8324 21.35 58.9431 20.7699 59.2256 20.2455C59.5058 19.7216 59.8709 19.4554 60.3153 19.4554Z" fill="#003B57"/>
<path d="M19.4633 1.72681H2.11412C0.951357 1.72681 0 2.67834 0 3.84105V22.9739C0 24.1366 0.951357 25.088 2.11412 25.088H13.5407C13.411 19.4025 15.3526 8.36864 19.4633 1.72681Z" fill="#0F80CC"/>
<path d="M18.833 2.34357H2.11413C1.28851 2.34357 0.616638 3.01527 0.616638 3.84105V21.578C4.40311 20.1248 10.0861 18.8708 14.0156 18.9278C14.8052 14.799 17.126 6.70732 18.833 2.34357Z" fill="url(#paint0_linear_5302_1875)"/>
<path d="M23.51 1.10064C22.3218 0.0410117 20.8832 0.466651 19.4633 1.72679C19.2525 1.914 19.0422 2.1217 18.833 2.34356C16.404 4.92028 14.1494 9.6932 13.449 13.3383C13.7218 13.8916 13.935 14.5977 14.0753 15.1372C14.1113 15.2755 14.1438 15.4054 14.1697 15.5159C14.2314 15.7774 14.2645 15.947 14.2645 15.947C14.2645 15.947 14.2427 15.8646 14.1534 15.6055C14.1364 15.5558 14.1174 15.5016 14.095 15.4377C14.0854 15.4113 14.0721 15.3793 14.0575 15.3451C13.899 14.9767 13.4607 14.1994 13.2679 13.8609C13.1029 14.3476 12.9571 14.8028 12.835 15.2147C13.3919 16.2336 13.7312 17.9796 13.7312 17.9796C13.7312 17.9796 13.7018 17.8664 13.5619 17.4715C13.4376 17.1222 12.8189 16.0381 12.6723 15.7847C12.4216 16.7102 12.322 17.3351 12.4118 17.4873C12.5863 17.7821 12.7524 18.2907 12.8982 18.8533C13.2278 20.1206 13.4568 21.6634 13.4568 21.6634C13.4568 21.6634 13.4642 21.7656 13.4767 21.923C13.4309 22.9872 13.4584 24.0906 13.5407 25.088C13.6499 26.4082 13.8554 27.5424 14.1174 28.1493L14.2952 28.0524C13.9106 26.8565 13.7543 25.2893 13.8228 23.4819C13.9263 20.7193 14.562 17.3876 15.7367 13.9152C17.7213 8.67323 20.4748 4.4674 22.9948 2.45885C20.6979 4.53322 17.5892 11.2478 16.6586 13.7343C15.6166 16.5187 14.8782 19.1316 14.4332 21.635C15.201 19.2881 17.6836 18.2793 17.6836 18.2793C17.6836 18.2793 18.9012 16.7776 20.3242 14.6322C19.4718 14.8266 18.0722 15.1594 17.6034 15.3564C16.9119 15.6465 16.7255 15.7454 16.7255 15.7454C16.7255 15.7454 18.9655 14.3813 20.8873 13.7637C23.5303 9.60101 26.4097 3.68739 23.51 1.10064Z" fill="#003B57"/>
<defs>
<linearGradient id="paint0_linear_5302_1875" x1="11.1205" y1="2.7372" x2="11.1205" y2="20.5083" gradientUnits="userSpaceOnUse">
<stop stop-color="#97D9F6"/>
<stop offset="0.920245" stop-color="#0F80CC"/>
<stop offset="1" stop-color="#0F80CC"/>
</linearGradient>
</defs>
</svg>
